<svg xmlns="http://www.w3.org/2000/svg" width="64" height="64" viewBox="0 0 64 64">
	<path d="M27.75,2A1.72,1.72,0,0,0,26,3.75v5a23.27,23.27,0,0,0-6.13,2.63L16.25,7.75a1.75,1.75,0,0,0-2.5,0l-6,6a1.75,1.75,0,0,0,0,2.5l3.63,3.63A23.27,23.27,0,0,0,8.75,26h-5A1.72,1.72,0,0,0,2,27.75v8.5A1.72,1.72,0,0,0,3.75,38h5a23.27,23.27,0,0,0,2.62,6.12L7.75,47.75a1.75,1.75,0,0,0,0,2.5l6,6a1.75,1.75,0,0,0,2.5,0l3.63-3.63A23.17,23.17,0,0,0,26,55.25v5A1.72,1.72,0,0,0,27.75,62h8.5A1.72,1.72,0,0,0,38,60.25v-5a23.28,23.28,0,0,0,6.12-2.62l3.62,3.62a1.75,1.75,0,0,0,2.5,0l6-6a1.75,1.75,0,0,0,0-2.5l-3.62-3.62A23.16,23.16,0,0,0,55.25,38h5A1.72,1.72,0,0,0,62,36.25v-8.5A1.72,1.72,0,0,0,60.25,26h-5a23.15,23.15,0,0,0-2.62-6.12l3.62-3.63a1.75,1.75,0,0,0,0-2.5l-6-6a1.75,1.75,0,0,0-2.5,0l-3.62,3.63A23.26,23.26,0,0,0,38,8.75v-5A1.72,1.72,0,0,0,36.25,2ZM32,18.63A13.37,13.37,0,1,1,18.63,32,13.38,13.38,0,0,1,32,18.63Z" style="fill: #fff"/>
</svg>
