<svg id="Layer_1" data-name="Layer 1" xmlns="http://www.w3.org/2000/svg" viewBox="0 0 128 128"><defs><style>.cls-1{fill:#00e2bb;}.cls-2{fill:#fff;}</style></defs><title>favicon-touch</title><rect class="cls-1" width="128" height="128" rx="20" ry="20"/><path class="cls-2" d="M58.33,29.12A16.16,16.16,0,0,0,45.48,55.06,24.33,24.33,0,0,1,74.1,48.79,16.18,16.18,0,0,0,58.33,29.12ZM37.25,36.6a8.44,8.44,0,0,0-7.32,12.57,19.24,19.24,0,0,1,9.5-2.51c.33,0,.65,0,1,0,0-.47-.06-1-.06-1.43A17.89,17.89,0,0,1,41.9,38a8.32,8.32,0,0,0-4.65-1.39Zm39.83,5.79c-.35,0-.68,0-1,.06a16.74,16.74,0,0,1-.28,7.16,24.62,24.62,0,0,1,9.69,9.72,19.27,19.27,0,0,1,7.63-2.15,16.1,16.1,0,0,0-16-14.79ZM64,48.41A22.61,22.61,0,1,0,86.58,71,22.59,22.59,0,0,0,64,48.41Zm-24.54.09A17.54,17.54,0,0,0,28.82,80a10.67,10.67,0,0,1,9.47-5.76,10,10,0,0,1,1.46.13A24.84,24.84,0,0,1,39.52,71a24.32,24.32,0,0,1,4.79-14.53,17.85,17.85,0,0,1-3.65-7.92c-.4,0-.82-.06-1.23-.06ZM94.4,59a17.4,17.4,0,0,0-8.14,2,24.48,24.48,0,0,1-4.91,27.23A17.54,17.54,0,1,0,94.4,59ZM20.18,61.26a16.15,16.15,0,1,0,9.15,29.45,10.75,10.75,0,0,1-1.24-9,19.35,19.35,0,0,1-8-15.71,19.56,19.56,0,0,1,.6-4.75c-.16,0-.31,0-.47,0Zm94.95,13.87a8.08,8.08,0,0,0-1.39.13c0,.4,0,.79,0,1.2a19.3,19.3,0,0,1-5.32,13.3,8.85,8.85,0,1,0,6.68-14.63Zm-76.84,1a8.85,8.85,0,1,0,8.23,12.06A24.44,24.44,0,0,1,40.1,76.27a9,9,0,0,0-1.81-.19Z" transform="translate(0 0)"/></svg>