<?xml version="1.0" encoding="utf-8"?>
<!-- Generator: Adobe Illustrator 25.2.2, SVG Export Plug-In . SVG Version: 6.00 Build 0)  -->
<svg version="1.1"
	 id="Layer_1" xmlns:cc="http://creativecommons.org/ns#" xmlns:dc="http://purl.org/dc/elements/1.1/" xmlns:rdf="http://www.w3.org/1999/02/22-rdf-syntax-ns#"
	 xmlns="http://www.w3.org/2000/svg" xmlns:xlink="http://www.w3.org/1999/xlink" x="0px" y="0px" viewBox="0 0 128 128"
	 style="enable-background:new 0 0 128 128;" xml:space="preserve">
<style type="text/css">
	.st0{fill:#041E42;}
	.st1{fill-rule:evenodd;clip-rule:evenodd;fill:#FFFFFF;}
</style>
<path class="st0" d="M108,0H20C9,0,0,9,0,20v88c0,11,9,20,20,20h88c11,0,20-9,20-20V20C128,9,119,0,108,0z"/>
<path class="st1" d="M104.8,68.2c-1.1-7-7.3-12.4-14.8-12.6c-0.6-7.1-6.8-12.8-14.3-12.8c-0.4,0-0.7,0-1.1,0.1
	c-1.6-5.9-7.2-10.3-13.8-10.3c-5.3,0-10,2.8-12.4,7c-1.3-0.8-2.8-1.2-4.4-1.2c-4.5,0-8.2,3.6-8.2,7.9c0,1.4,0.4,2.8,1.1,4
	c-2.6,1.8-4.6,4.3-5.7,7.2c-0.3,0-0.5,0-0.8,0c-7.9,0-14.3,6.2-14.3,13.9c0,7.7,6.4,13.9,14.3,13.9c3,0,73.2-0.6,75.7-0.6
	c4.7,0,8.5-3.7,8.5-8.3c0-4.6-3.8-8.3-8.5-8.3C105.6,68.1,105.2,68.1,104.8,68.2z"/>
</svg>
