<?xml version="1.0" encoding="UTF-8" standalone="no"?>
<!DOCTYPE svg PUBLIC "-//W3C//DTD SVG 1.1//EN"
		"http://www.w3.org/Graphics/SVG/1.1/DTD/svg11.dtd">
<svg width="100%" height="100%" viewBox="0 0 16 16" version="1.1"
	 xmlns="http://www.w3.org/2000/svg"
	 xmlns:xlink="http://www.w3.org/1999/xlink" xml:space="preserve"
	 style="fill-rule:evenodd;clip-rule:evenodd;stroke-linejoin:round;stroke-miterlimit:1.41421;">
    <g>
        <path d="M13.512,0C14.888,0 16.012,1.125 16.012,2.5L16.012,13.5C16.012,14.875 14.887,16 13.512,16L2.512,16C1.137,16 0.012,14.875 0.012,13.5L0.012,2.5C0.012,1.125 1.137,0 2.512,0L13.512,0ZM3.813,7.188C2.825,7.188 2.025,7.963 2.025,8.925C2.025,9.887 2.825,10.663 3.813,10.663C4.188,10.663 12.963,10.587 13.275,10.587C13.863,10.587 14.338,10.125 14.338,9.55C14.338,8.975 13.863,8.513 13.275,8.513C13.213,8.513 13.163,8.513 13.113,8.525C12.975,7.65 12.2,6.975 11.263,6.95C11.188,6.063 10.413,5.35 9.475,5.35C9.425,5.35 9.388,5.35 9.338,5.362C9.138,4.625 8.438,4.075 7.613,4.075C6.95,4.075 6.363,4.425 6.063,4.95C5.9,4.85 5.713,4.8 5.513,4.8C4.95,4.8 4.488,5.25 4.488,5.787C4.488,5.963 4.538,6.137 4.625,6.287C4.3,6.512 4.05,6.825 3.913,7.188L3.813,7.188Z"/>
    </g>
</svg>