<?xml version="1.0" encoding="utf-8"?>
<!-- Generator: Adobe Illustrator 21.0.2, SVG Export Plug-In . SVG Version: 6.00 Build 0)  -->
<svg version="1.1" id="Ebene_1" xmlns="http://www.w3.org/2000/svg" xmlns:xlink="http://www.w3.org/1999/xlink" x="0px" y="0px"
	 viewBox="0 0 151.6 98.6" style="enable-background:new 0 0 151.6 98.6;" xml:space="preserve">
<style type="text/css">
	.st0{fill:#00E2BB;}
	.st1{fill:#688D9E;}
	.st2{fill:url(#SVGID_1_);}
</style>
<g>
	<g>
		<g id="Shape">
			<path class="st0" d="M8.8,53.9c-4.8,0-8.8,3.9-8.8,8.7s3.9,8.7,8.8,8.7c4.8,0,8.8-3.9,8.8-8.7S13.6,53.9,8.8,53.9z M8.8,69.1
				c-3.6,0-6.5-2.9-6.5-6.5s2.9-6.5,6.5-6.5s6.5,2.9,6.5,6.5S12.4,69.1,8.8,69.1z M40.9,54.5h-0.4v10.8c0,2.1-1.7,3.8-3.8,3.8
				s-3.8-1.7-3.8-3.8V54.5h-2.3v10.8c0,2.1-1.7,3.8-3.8,3.8s-3.8-1.7-3.8-3.8V54.5h-2.3v10.8c0,3.3,2.7,6,6,6c2,0,3.8-1,4.9-2.5
				c1.1,1.5,2.9,2.5,4.9,2.5c3.3,0,6-2.7,6-6V54.5H40.9L40.9,54.5z M55,53.8c-4.8,0-8.8,3.9-8.8,8.7v8.1h2.3v-8.1
				c0-3.6,2.9-6.5,6.5-6.5s6.5,2.9,6.5,6.5v8.1h2.3v-8.1C63.8,57.7,59.8,53.8,55,53.8z"/>
		</g>
		<path class="st1" d="M101.8,53.9c-4.8,0-8.8,3.9-8.8,8.7s3.9,8.7,8.8,8.7c4.8,0,8.8-3.9,8.8-8.7S106.6,53.9,101.8,53.9z
			 M101.8,69.1c-3.6,0-6.5-2.9-6.5-6.5c0-3.6,2.9-6.5,6.5-6.5s6.5,2.9,6.5,6.5C108.3,66.2,105.4,69.1,101.8,69.1z M129.1,54.5h-0.4
			v8.1c0,3.6-2.9,6.5-6.5,6.5s-6.5-2.9-6.5-6.5v-8.1h-2.3v8.1c0,4.8,3.9,8.7,8.8,8.7s8.8-3.9,8.8-8.7v-8.1H129.1L129.1,54.5z
			 M151.5,55V40.7h-2.3v13.2l-6.6,0c-4.8,0-8.8,3.9-8.8,8.7s3.9,8.7,8.8,8.7h2.7c2.7,0,6.1-2.7,6.1-6C151.5,63,151.5,56.3,151.5,55z
			 M149.2,65.3c0,2-2.2,3.8-3.9,3.8h-2.7c-3.6,0-6.5-2.9-6.5-6.5c0-3.6,2.9-6.5,6.5-6.5l6.6,0C149.2,58.2,149.3,63.3,149.2,65.3z
			 M87.2,65.4V48.1c-0.8-0.4-1.5-0.8-2.3-1.3v18.6c0,3.3,2.7,6,6,6h0.4v-2.3h-0.4C88.9,69.1,87.2,67.4,87.2,65.4L87.2,65.4z
			 M69.2,58.1c0-3.4,1.5-6.4,3.9-8.4c-0.7-0.3-1.4-0.7-2.1-1.2c-2.5,2.4-4.1,5.8-4.1,9.6c0,7.3,6,13.3,13.4,13.3h0.4v-2.3h-0.4
			C74.2,69.1,69.2,64.2,69.2,58.1L69.2,58.1z"/>
		
			<linearGradient id="SVGID_1_" gradientUnits="userSpaceOnUse" x1="2011.4729" y1="1996.1653" x2="2011.4729" y2="1994.9022" gradientTransform="matrix(72.042 0 0 -38.79 -144815.0312 77431.2734)">
			<stop  offset="0" style="stop-color:#C7DAE4"/>
			<stop  offset="1" style="stop-color:#9FB7C5"/>
		</linearGradient>
		<path class="st2" d="M69.7,15.1c-0.5-0.9-0.8-2-0.8-3.1c0-3.5,2.9-6.3,6.4-6.3c1.3,0,2.5,0.4,3.5,1.1c-0.7,1.7-1.2,3.5-1.2,5.5
			c0,0.4,0,0.7,0,1.1l-0.8,0C74.3,13.3,71.8,13.9,69.7,15.1L69.7,15.1z M68.3,39.7c-3.7-2.7-6.1-7-6.1-11.9c0-1.2,0.2-2.5,0.5-3.6
			l-0.4,0c-6.8,0-12.3,5.5-12.3,12.2s5.5,12.2,12.3,12.2c2.6,0,5-0.8,6.9-2.2c-0.8-1.3-1.3-2.8-1.3-4.4
			C67.9,41.3,68.1,40.5,68.3,39.7z M68.8,38.4c1.1-2.1,3.1-3.7,5.5-4.2c0.2,0,0.5-0.1,0.7-0.1c0.2,0,0.5,0,0.7-0.1l0.3,0
			c0.4,0,0.7,0,1.1,0.1C77,33.3,77,32.5,77,31.7c0-4.1,1.4-7.9,3.6-11c-0.5-0.6-1-1.3-1.4-2.1L78.9,18l-0.3-0.6
			c-0.4-0.9-0.6-1.8-0.8-2.7c-0.3,0-0.6,0-0.9,0c-2.3,0-4.5,0.6-6.4,1.6l-0.6,0.4L69.3,17c-2.2,1.5-3.8,3.6-4.8,6.1l-0.2,0.7
			l-0.2,0.7c-0.3,1.1-0.5,2.3-0.5,3.5C63.6,32.2,65.6,36,68.8,38.4L68.8,38.4z M111.8,22.8c1.8-0.9,3.8-1.5,5.9-1.6
			c-0.5-6.2-5.8-11.1-12.2-11.1l-0.7,0c0.1,0.7,0.2,1.4,0.2,2.1c0,1.1-0.1,2.2-0.4,3.3C107.5,17.2,110.1,19.7,111.8,22.8L111.8,22.8
			z M79.1,14.1l0.1,0.7c0.1,0.6,0.3,1.1,0.5,1.6l0.3,0.7l0.3,0.7c0.3,0.6,0.7,1.2,1.1,1.8c0.9-1,1.8-1.9,2.9-2.7l0.6-0.4l0.6-0.4
			c2.8-1.8,6.1-2.8,9.7-2.9l0.2,0l0.7,0c0.3,0,0.6,0,0.9,0.1c2.1,0.2,4.2,0.7,6,1.6c0.2-0.9,0.3-1.7,0.3-2.6c0-0.7-0.1-1.3-0.2-2
			l-0.1-0.7L103,8.9C101.5,3.8,96.8,0,91.2,0c-4.6,0-8.6,2.6-10.7,6.3L80.2,7l-0.3,0.7c-0.6,1.4-0.9,2.9-0.9,4.6
			c0,0.4,0,0.8,0.1,1.2L79.1,14.1L79.1,14.1z M134.3,34.8c-0.4,0-0.7,0-1.1,0.1c0,0.3,0,0.6,0,0.9c0,3.9-1.5,7.4-4,10
			c1.2,1.4,3,2.3,5.1,2.3c3.7,0,6.7-3,6.7-6.7C141,37.8,138,34.8,134.3,34.8L134.3,34.8z M131.9,35.2l0-0.7l-0.1-0.7
			c-0.9-6.2-6.2-11-12.7-11.3l-0.5,0l-0.2,0l-0.7,0c-1.9,0.1-3.7,0.7-5.3,1.5c1,2.1,1.5,4.4,1.6,6.9l0,0.7l0,0.2c0,0.3,0,0.6,0,0.9
			c-0.3,4.6-2.3,8.7-5.3,11.8c2.4,2.7,6,4.4,9.9,4.4c3.4,0,6.5-1.3,8.8-3.4l0.5-0.5l0.5-0.5c2.1-2.4,3.4-5.5,3.4-8.9L131.9,35.2
			L131.9,35.2z M79.8,41.5l-0.4-0.6c-0.9-1.6-1.6-3.4-2.1-5.3c-0.4-0.1-0.9-0.1-1.4-0.1l-0.1,0c-0.2,0-0.5,0-0.7,0.1
			c-0.2,0-0.5,0.1-0.7,0.1c-2,0.5-3.6,1.8-4.5,3.6c-0.1,0.2-0.2,0.4-0.3,0.6c-0.1,0.2-0.2,0.4-0.2,0.7c-0.1,0.5-0.2,1.1-0.2,1.6
			c0,1.3,0.4,2.5,1,3.5c0.1,0.2,0.3,0.4,0.4,0.6c0.1,0.2,0.3,0.4,0.4,0.5c1.2,1.3,2.9,2.1,4.9,2.1c2.8,0,5.3-1.8,6.2-4.3
			c-0.7-0.8-1.4-1.6-2-2.4L79.8,41.5L79.8,41.5z M112.6,33c0-0.3,0-0.6,0-0.9l0-0.4c0-2.5-0.5-4.8-1.5-6.9l-0.3-0.6l-0.3-0.6
			c-1.5-2.8-3.8-5.1-6.5-6.7l-0.6-0.3l-0.6-0.3c-2.1-1-4.4-1.6-6.9-1.6l-0.4,0l-0.5,0c-0.3,0-0.6,0-0.9,0c-2.7,0.2-5.2,1.1-7.4,2.4
			l-0.6,0.4l-0.6,0.4c-1.1,0.8-2.2,1.8-3.1,2.8l-0.4,0.5l-0.4,0.6c-2,2.8-3.2,6.2-3.2,9.9c0,1,0.1,1.9,0.2,2.9l0.2,0.8
			c0.1,0.3,0.1,0.6,0.2,0.9c0.4,1.6,1.1,3,1.9,4.4l0.4,0.6l0.4,0.6c0.3,0.4,0.7,0.9,1,1.3c0.2,0.2,0.4,0.4,0.6,0.6l0.6,0.6
			c3.1,2.8,7.1,4.5,11.6,4.5c4.3,0,8.3-1.6,11.3-4.2l0.5-0.5l0.5-0.5c2.5-2.6,4.2-5.9,4.7-9.7C112.5,33.6,112.6,33.3,112.6,33
			L112.6,33z"/>
	</g>
	<g>
		<g>
			<path class="st1" d="M36.3,89.5c0,1.6-0.4,2.8-1.2,3.7c-0.8,0.9-1.9,1.3-3.4,1.3s-2.6-0.4-3.4-1.3c-0.8-0.9-1.2-2.1-1.2-3.7
				s0.4-2.8,1.2-3.7c0.8-0.9,1.9-1.3,3.4-1.3s2.6,0.4,3.4,1.3C36,86.6,36.3,87.8,36.3,89.5z M29.3,89.5c0,1.1,0.2,1.9,0.6,2.4
				c0.4,0.5,1,0.8,1.8,0.8c1.6,0,2.5-1.1,2.5-3.3c0-2.2-0.8-3.3-2.4-3.3c-0.8,0-1.4,0.3-1.9,0.8C29.5,87.6,29.3,88.4,29.3,89.5z"/>
			<path class="st1" d="M56.3,94.3h-2.6L49.5,87h-0.1c0.1,1.3,0.1,2.2,0.1,2.8v4.6h-1.8v-9.7h2.6l4.2,7.3h0
				c-0.1-1.3-0.1-2.2-0.1-2.7v-4.6h1.9V94.3z"/>
			<path class="st1" d="M68.2,94.3v-9.7h2.1v8h3.9v1.7H68.2z"/>
			<path class="st1" d="M85.2,94.3v-9.7h2.1v9.7H85.2z"/>
			<path class="st1" d="M107.7,94.3h-2.6l-4.2-7.3h-0.1c0.1,1.3,0.1,2.2,0.1,2.8v4.6h-1.8v-9.7h2.6l4.2,7.3h0
				c-0.1-1.3-0.1-2.2-0.1-2.7v-4.6h1.9V94.3z"/>
			<path class="st1" d="M125.1,94.3h-5.6v-9.7h5.6v1.7h-3.5v2.1h3.3v1.7h-3.3v2.5h3.5V94.3z"/>
		</g>
	</g>
</g>
</svg>
