<?xml version="1.0" encoding="utf-8"?>
<!-- Generator: Adobe Illustrator 21.1.0, SVG Export Plug-In . SVG Version: 6.00 Build 0)  -->
<svg version="1.1" xmlns="http://www.w3.org/2000/svg" xmlns:xlink="http://www.w3.org/1999/xlink" x="0px" y="0px"
	 viewBox="0 0 51 28" style="enable-background:new 0 0 51 28;" xml:space="preserve">
<style type="text/css">
	.st0{fill:#FFFFFF;}
	.st1{display:none;}
	.st2{display:inline;fill:url(#Shape_2_);}
</style>
<g id="Ebene_1" xmlns:cc="http://creativecommons.org/ns#" xmlns:dc="http://purl.org/dc/elements/1.1/" xmlns:rdf="http://www.w3.org/1999/02/22-rdf-syntax-ns#">
	<path class="st0" d="M23.1,0.5c-3.7,0-6.7,3-6.7,6.7c0,1.5,0.5,2.9,1.4,4.1c1.9-2.2,4.6-3.5,7.7-3.5c1.5,0,2.9,0.3,4.2,0.9
		c0.1-0.5,0.2-1,0.2-1.5C29.9,3.5,26.9,0.5,23.1,0.5L23.1,0.5z M14.4,3.6c-1.9,0-3.5,1.6-3.5,3.5c0,0.6,0.2,1.2,0.4,1.7
		c1.2-0.7,2.5-1,4-1c0.1,0,0.3,0,0.4,0c0-0.2,0-0.4,0-0.6c0-1.1,0.2-2.1,0.6-3C15.7,3.8,15.1,3.6,14.4,3.6L14.4,3.6z M30.9,6
		c-0.1,0-0.3,0-0.4,0c0.1,0.4,0.1,0.8,0.1,1.2c0,0.6-0.1,1.2-0.2,1.8c1.7,0.9,3.1,2.3,4,4.1c1-0.5,2-0.8,3.2-0.9
		C37.3,8.7,34.5,6,30.9,6L30.9,6z M25.5,8.5c-5.2,0-9.4,4.2-9.4,9.4c0,5.2,4.2,9.4,9.4,9.4s9.4-4.2,9.4-9.4
		C34.9,12.7,30.7,8.5,25.5,8.5z M15.3,8.6c-4,0-7.3,3.3-7.3,7.3c0,2.4,1.1,4.5,2.9,5.8c0.7-1.4,2.2-2.4,3.9-2.4c0.2,0,0.4,0,0.6,0.1
		c-0.1-0.5-0.1-0.9-0.1-1.4c0-2.3,0.7-4.4,2-6.1c-0.8-0.9-1.3-2.1-1.5-3.3C15.6,8.6,15.4,8.6,15.3,8.6L15.3,8.6z M38.2,12.9
		c-1.2,0-2.4,0.3-3.4,0.8c0.6,1.3,0.9,2.7,0.9,4.2c0,2.8-1.1,5.3-2.9,7.2c1.3,1.5,3.3,2.4,5.4,2.4c4,0,7.3-3.3,7.3-7.3
		C45.5,16.2,42.2,12.9,38.2,12.9L38.2,12.9z M7.2,13.9c-3.7,0-6.7,3-6.7,6.7c0,3.7,3,6.7,6.7,6.7c1.4,0,2.7-0.4,3.8-1.2
		c-0.4-0.7-0.7-1.5-0.7-2.4c0-0.5,0.1-0.9,0.2-1.3c-2-1.5-3.4-3.9-3.4-6.5c0-0.7,0.1-1.3,0.3-2C7.4,13.9,7.3,13.9,7.2,13.9L7.2,13.9
		z M46.8,19.7c-0.2,0-0.4,0-0.6,0.1c0,0.2,0,0.3,0,0.5c0,2.1-0.8,4.1-2.2,5.5c0.7,0.8,1.7,1.3,2.8,1.3c2,0,3.7-1.6,3.7-3.7
		S48.8,19.7,46.8,19.7L46.8,19.7z M14.8,20c-2,0-3.7,1.6-3.7,3.7s1.6,3.7,3.7,3.7c1.6,0,2.9-1,3.4-2.3c-1.3-1.3-2.3-3-2.7-4.9
		C15.3,20.1,15,20,14.8,20L14.8,20z"/>
</g>
<g id="Ebene_2" class="st1">
	
		<linearGradient id="Shape_2_" gradientUnits="userSpaceOnUse" x1="-219.9378" y1="301.6573" x2="-219.9378" y2="301.8836" gradientTransform="matrix(220.9333 0 0 118.3742 48617.082 -35707.8359)">
		<stop  offset="0" style="stop-color:#BFD5E0"/>
		<stop  offset="1" style="stop-color:#90ACBB"/>
	</linearGradient>
	<path id="Shape_1_" class="st2" d="M11.3,8.9c-0.3-0.5-0.5-1.1-0.5-1.7c0-1.9,1.6-3.5,3.5-3.5c0.7,0,1.4,0.2,1.9,0.6
		c-0.4,0.9-0.6,1.9-0.6,3c0,0.2,0,0.4,0,0.6c-0.1,0-0.3,0-0.4,0C13.8,7.8,12.5,8.2,11.3,8.9L11.3,8.9z M10.5,22.3
		c-2-1.4-3.3-3.8-3.3-6.5c0-0.7,0.1-1.3,0.2-2c-0.1,0-0.1,0-0.2,0c-3.7,0-6.7,3-6.7,6.7c0,3.7,3,6.7,6.7,6.7c1.4,0,2.7-0.4,3.8-1.2
		c-0.5-0.7-0.7-1.5-0.7-2.4C10.3,23.2,10.4,22.7,10.5,22.3L10.5,22.3z M10.8,21.6c0.6-1.2,1.7-2,3-2.3c0.1,0,0.2,0,0.4-0.1
		c0.1,0,0.2,0,0.4,0c0.1,0,0.1,0,0.2,0c0.2,0,0.4,0,0.6,0c-0.1-0.5-0.1-0.9-0.1-1.4c0-2.2,0.7-4.3,2-6c-0.3-0.3-0.5-0.7-0.7-1.1
		c-0.1-0.1-0.1-0.2-0.2-0.3c0-0.1-0.1-0.2-0.2-0.3c-0.2-0.5-0.3-1-0.4-1.5c-0.2,0-0.3,0-0.5,0c-1.3,0-2.5,0.3-3.5,0.9
		c-0.1,0.1-0.2,0.1-0.3,0.2c-0.1,0.1-0.2,0.1-0.3,0.2c-1.2,0.8-2.1,2-2.7,3.3c0,0.1-0.1,0.2-0.1,0.4c0,0.1-0.1,0.2-0.1,0.4
		C8.1,14.5,8,15.2,8,15.8C7.9,18.2,9.1,20.3,10.8,21.6L10.8,21.6z M34.4,13c1-0.5,2.1-0.8,3.2-0.9c-0.3-3.4-3.2-6.1-6.7-6.1
		c-0.1,0-0.3,0-0.4,0c0.1,0.4,0.1,0.8,0.1,1.2c0,0.6-0.1,1.2-0.2,1.8C32.1,10,33.5,11.4,34.4,13L34.4,13z M16.5,8.3
		c0,0.1,0,0.3,0.1,0.4c0.1,0.3,0.2,0.6,0.3,0.9c0,0.1,0.1,0.2,0.2,0.4c0,0.1,0.1,0.2,0.2,0.4c0.2,0.3,0.4,0.7,0.6,1
		c0.5-0.5,1-1,1.6-1.4c0.1-0.1,0.2-0.2,0.3-0.2c0.1-0.1,0.2-0.2,0.3-0.2c1.5-1,3.4-1.6,5.3-1.6c0,0,0.1,0,0.1,0c0.1,0,0.2,0,0.4,0
		c0.2,0,0.3,0,0.5,0c1.2,0.1,2.3,0.4,3.3,0.9c0.1-0.5,0.2-1,0.2-1.4c0-0.4,0-0.7-0.1-1.1c0-0.1,0-0.2-0.1-0.4c0-0.1-0.1-0.2-0.1-0.4
		c-0.8-2.8-3.4-4.8-6.5-4.8c-2.5,0-4.8,1.4-5.9,3.5c-0.1,0.1-0.1,0.2-0.2,0.3C17,4.5,17,4.7,16.9,4.8c-0.3,0.8-0.5,1.6-0.5,2.5
		c0,0.2,0,0.5,0,0.7C16.5,8,16.5,8.2,16.5,8.3L16.5,8.3z M46.8,19.6c-0.2,0-0.4,0-0.6,0c0,0.2,0,0.3,0,0.5c0,2.1-0.8,4-2.2,5.5
		c0.7,0.8,1.7,1.3,2.8,1.3c2,0,3.7-1.6,3.7-3.6C50.5,21.2,48.8,19.6,46.8,19.6L46.8,19.6z M45.5,19.8c0-0.1,0-0.3,0-0.4
		c0-0.1,0-0.2,0-0.4c-0.5-3.4-3.4-6-7-6.2c-0.1,0-0.2,0-0.3,0c0,0-0.1,0-0.1,0c-0.1,0-0.2,0-0.4,0c-1,0.1-2,0.4-2.9,0.8
		c0.5,1.2,0.8,2.4,0.9,3.8c0,0.1,0,0.3,0,0.4c0,0,0,0.1,0,0.1c0,0.2,0,0.3,0,0.5c-0.2,2.5-1.2,4.8-2.9,6.5c1.3,1.5,3.3,2.4,5.4,2.4
		c1.9,0,3.6-0.7,4.8-1.8c0.1-0.1,0.2-0.2,0.3-0.3c0.1-0.1,0.2-0.2,0.3-0.3c1.2-1.3,1.9-3,1.9-4.9C45.5,20,45.5,19.9,45.5,19.8
		L45.5,19.8z M16.9,23.3c-0.1-0.1-0.1-0.2-0.2-0.3c-0.5-0.9-0.9-1.9-1.1-2.9C15.3,20,15,20,14.8,20c0,0,0,0-0.1,0
		c-0.1,0-0.2,0-0.4,0c-0.1,0-0.2,0-0.4,0.1c-1.1,0.2-2,1-2.5,1.9c-0.1,0.1-0.1,0.2-0.2,0.4c0,0.1-0.1,0.2-0.1,0.4
		c-0.1,0.3-0.1,0.6-0.1,0.9c0,0.7,0.2,1.4,0.5,1.9c0.1,0.1,0.1,0.2,0.2,0.3c0.1,0.1,0.2,0.2,0.2,0.3c0.7,0.7,1.6,1.1,2.7,1.1
		c1.6,0,2.9-1,3.4-2.3c-0.4-0.4-0.8-0.9-1.1-1.3C17,23.5,16.9,23.4,16.9,23.3L16.9,23.3z M34.9,18.6c0-0.2,0-0.3,0-0.5
		c0-0.1,0-0.2,0-0.2c0-1.3-0.3-2.6-0.8-3.8c0-0.1-0.1-0.2-0.2-0.3c0-0.1-0.1-0.2-0.2-0.3c-0.8-1.5-2.1-2.8-3.6-3.6
		c-0.1-0.1-0.2-0.1-0.3-0.2c-0.1-0.1-0.2-0.1-0.3-0.2c-1.2-0.5-2.4-0.9-3.8-0.9c-0.1,0-0.1,0-0.2,0s-0.2,0-0.3,0c-0.2,0-0.3,0-0.5,0
		c-1.5,0.1-2.9,0.6-4.1,1.3c-0.1,0.1-0.2,0.1-0.3,0.2c-0.1,0.1-0.2,0.2-0.3,0.2c-0.6,0.5-1.2,1-1.7,1.6c-0.1,0.1-0.2,0.2-0.2,0.3
		c-0.1,0.1-0.2,0.2-0.2,0.3C16.7,14,16,15.8,16,17.8c0,0.5,0,1.1,0.1,1.6c0,0.1,0,0.3,0.1,0.4c0,0.2,0.1,0.3,0.1,0.5
		c0.2,0.9,0.6,1.7,1,2.4c0.1,0.1,0.1,0.2,0.2,0.3c0.1,0.1,0.2,0.2,0.2,0.3c0.2,0.2,0.4,0.5,0.6,0.7c0.1,0.1,0.2,0.2,0.3,0.4
		c0.1,0.1,0.2,0.2,0.3,0.3c1.7,1.5,3.9,2.5,6.4,2.5c2.4,0,4.5-0.9,6.2-2.3c0.1-0.1,0.2-0.2,0.3-0.2c0.1-0.1,0.2-0.2,0.3-0.3
		c1.4-1.4,2.3-3.2,2.6-5.3C34.8,18.9,34.9,18.8,34.9,18.6L34.9,18.6z"/>
</g>
</svg>
