<?xml version="1.0" encoding="utf-8"?>
<!-- Generator: Adobe Illustrator 25.2.2, SVG Export Plug-In . SVG Version: 6.00 Build 0)  -->
<svg version="1.1" id="Ebene_1" xmlns="http://www.w3.org/2000/svg" xmlns:xlink="http://www.w3.org/1999/xlink" x="0px" y="0px"
	 viewBox="0 0 470 190" style="enable-background:new 0 0 470 190;" xml:space="preserve">
<style type="text/css">
	.st0{fill:#FFFFFF;}
</style>
<g id="Ebene_2">
</g>
<g id="Ebene_1_1_">
	<desc>Created with Sketch.</desc>
	<g id="Page-1_1_">
		<g id="Version-B-plain-Copy-2" transform="translate(-476.000000, -421.000000)">
			<g id="Group_1_" transform="translate(476.000000, 421.000000)">
				<g id="Group-2">
					<g id="Logo">
						<g>
							<g id="Group" transform="translate(0.000000, 97.835436)">
								<g id="Shape" transform="translate(0.000000, 31.775612)">
									<path class="st0" d="M70.9,7.8c-11.8,0-21.3,9.5-21.3,21.1S59.1,50,70.9,50s21.3-9.5,21.3-21.1S82.6,7.8,70.9,7.8L70.9,7.8
										z M70.9,44.6c-8.7,0-15.8-7-15.8-15.7s7-15.7,15.8-15.7s15.8,7,15.8,15.7S79.6,44.6,70.9,44.6L70.9,44.6z"/>
									<path class="st0" d="M148.9,9.3h-1.1v1v25.1c0,5-4.1,9.1-9.2,9.1s-9.2-4.1-9.2-9.1V10.3v-1h-1.1h-3.4H124v1v25.1
										c0,5-4.1,9.1-9.2,9.1s-9.2-4.1-9.2-9.1V10.3v-1h-1.1h-3.4H100v1v25.1c0,8,6.6,14.5,14.7,14.5c4.9,0,9.3-2.4,11.9-6.1
										c2.7,3.7,7,6.1,11.9,6.1c8.1,0,14.7-6.5,14.7-14.5V10.3v-1h-1.1H148.9L148.9,9.3z"/>
									<path class="st0" d="M183.1,7.6c-11.8,0-21.3,9.5-21.3,21.1v18.6v1h1.1h3.4h1.1v-1V28.7c0-8.6,7.1-15.7,15.8-15.7
										S199,20,199,28.7v18.6v1h1.1h3.4h1.1v-1V28.7C204.4,17.1,194.9,7.6,183.1,7.6L183.1,7.6z"/>
								</g>
								<g id="Shape_1_" transform="translate(162.055046, -0.000000)">
									<path class="st0" d="M134.6,39.5c-11.8,0-21.3,9.5-21.3,21.1s9.6,21.1,21.3,21.1s21.3-9.5,21.3-21.1S146.4,39.5,134.6,39.5
										L134.6,39.5z M134.6,76.3c-8.7,0-15.8-7-15.8-15.7S125.9,45,134.6,45s15.8,7,15.8,15.7S143.3,76.3,134.6,76.3L134.6,76.3z"
										/>
									<path class="st0" d="M200.9,41h-1.1v1v18.6c0,8.6-7.1,15.7-15.8,15.7s-15.8-7-15.8-15.7V42.1v-1h-1.1h-3.4h-1.1v1v18.6
										c0,11.6,9.6,21.1,21.3,21.1c11.8,0,21.3-9.5,21.3-21.1V42.1v-1h-1.1L200.9,41L200.9,41z"/>
									<path class="st0" d="M255.3,42.3L255.3,42.3V8.6v-1h-1.1h-3.4h-1.1v1v30.9h-16c-11.8,0-21.3,9.5-21.3,21.1
										s9.6,21.1,21.3,21.1h6.6c6.6,0,14.7-6.5,14.9-14.5C255.4,61.5,255.3,45.5,255.3,42.3L255.3,42.3z M249.8,67.2
										c-0.1,4.7-5.4,9.1-9.4,9.1h-6.6c-8.7,0-15.8-7-15.8-15.7c0-8.6,7.1-15.7,15.8-15.7h16C249.9,50,249.9,62.3,249.8,67.2
										L249.8,67.2z"/>
									<path class="st0" d="M99.2,67.2V25.6c-1.9-1-3.7-2-5.5-3.2v44.8c0,8,6.6,14.5,14.7,14.5h1.1v-1v-3.3v-1h-1.1
										C103.3,76.3,99.2,72.3,99.2,67.2L99.2,67.2z"/>
									<path class="st0" d="M55.6,49.7c0-8.1,3.7-15.4,9.4-20.3c-1.8-0.7-3.5-1.6-5-2.8c-6.1,5.8-9.9,14-9.9,23.1
										c0,17.7,14.5,32.1,32.4,32.1h1.1v-1v-3.3v-1h-1.1C67.7,76.3,55.6,64.4,55.6,49.7L55.6,49.7z"/>
								</g>
							</g>
							<path id="Shape_2_" class="st0" d="M218.8,43.8c-1.3-2.2-2-4.8-2-7.6c0-8.5,6.9-15.3,15.5-15.3c3.2,0,6.1,0.9,8.5,2.6
								C239,27.6,238,32,238,36.8c0,0.9,0,1.7,0.1,2.6c-0.6,0-1.2,0-1.8,0C229.9,39.2,223.9,40.9,218.8,43.8L218.8,43.8z
								 M215.4,103.2c-9-6.4-14.8-16.9-14.8-28.6c0-3,0.4-5.9,1.1-8.7c-0.3,0-0.6,0-0.9,0C184.4,65.8,171,79,171,95.3
								c0,16.2,13.3,29.5,29.7,29.5c6.3,0,12.1-1.9,16.8-5.2c-2-3-3.1-6.7-3.1-10.5C214.5,107,214.8,105,215.4,103.2L215.4,103.2z
								 M216.7,100c2.7-5.1,7.5-8.8,13.3-10.1c0.5-0.1,1.1-0.2,1.7-0.3c0.6-0.1,1.1-0.1,1.7-0.1c0.3,0,0.5,0,0.8,0
								c0.9,0,1.8,0.1,2.7,0.2c-0.3-2-0.4-4-0.4-6.1c0-9.9,3.3-19.1,8.8-26.5c-1.3-1.5-2.4-3.2-3.3-5c-0.3-0.5-0.5-1-0.8-1.5
								c-0.2-0.5-0.5-1-0.7-1.5c-0.9-2.1-1.5-4.3-1.9-6.5c-0.8-0.1-1.5-0.1-2.3-0.1c-5.6,0-10.9,1.4-15.4,3.9
								c-0.5,0.3-1,0.6-1.5,0.9c-0.5,0.3-1,0.6-1.4,0.9c-5.2,3.6-9.3,8.7-11.7,14.7c-0.2,0.5-0.4,1.1-0.6,1.6
								c-0.2,0.5-0.3,1.1-0.5,1.6c-0.7,2.7-1.1,5.5-1.1,8.4C203.9,84.9,209,94.2,216.7,100L216.7,100z M320.9,62.3
								c4.3-2.2,9.1-3.6,14.2-4c-1.3-15-14.1-26.9-29.6-26.9c-0.6,0-1.2,0-1.8,0.1c0.3,1.7,0.4,3.4,0.4,5.2c0,2.7-0.3,5.4-1,7.9
								C310.7,48.7,316.8,54.9,320.9,62.3L320.9,62.3z M241.7,41.3c0.1,0.6,0.2,1.2,0.3,1.8c0.3,1.3,0.7,2.6,1.2,3.9
								c0.2,0.6,0.4,1.1,0.7,1.7c0.2,0.5,0.5,1.1,0.8,1.6c0.8,1.5,1.7,2.9,2.7,4.3c2.1-2.4,4.4-4.5,6.9-6.4c0.5-0.4,1-0.7,1.5-1
								s1-0.7,1.5-1c6.8-4.3,14.9-6.9,23.6-7c0.2,0,0.4,0,0.6,0c0.6,0,1.1,0,1.7,0c0.8,0,1.5,0.1,2.3,0.1c5.2,0.5,10.1,1.8,14.7,3.8
								c0.5-2.1,0.7-4.2,0.7-6.4c0-1.6-0.1-3.2-0.4-4.8c-0.1-0.6-0.2-1.1-0.3-1.6c-0.1-0.5-0.3-1.1-0.4-1.6
								c-3.6-12.3-15-21.4-28.6-21.4c-11.2,0-21,6.2-26,15.3c-0.3,0.5-0.6,1-0.8,1.5c-0.3,0.5-0.5,1.1-0.7,1.7
								c-1.4,3.4-2.2,7.1-2.2,11c0,1,0.1,2,0.1,2.9C241.5,40.2,241.6,40.8,241.7,41.3L241.7,41.3z M375.7,91.2
								c-0.9,0-1.8,0.1-2.6,0.2c0,0.7,0.1,1.5,0.1,2.2c0,9.4-3.7,17.9-9.8,24.3c3,3.4,7.4,5.6,12.3,5.6c9,0,16.3-7.2,16.3-16.1
								C392,98.4,384.6,91.2,375.7,91.2L375.7,91.2z M369.7,92.3c0-0.6-0.1-1.2-0.1-1.7c-0.1-0.6-0.1-1.1-0.2-1.7
								c-2.3-15-15.1-26.7-30.8-27.2c-0.4,0-0.8,0-1.2,0c-0.2,0-0.3,0-0.5,0c-0.6,0-1.1,0-1.7,0.1c-4.6,0.3-8.9,1.6-12.8,3.6
								c2.3,5.1,3.7,10.7,4,16.6c0,0.6,0,1.2,0,1.8c0,0.2,0,0.3,0,0.5c0,0.8,0,1.5-0.1,2.2c-0.7,11.1-5.5,21.1-12.9,28.6
								c5.9,6.5,14.5,10.6,24,10.6c8.2,0,15.7-3.1,21.4-8.1c0.4-0.4,0.9-0.8,1.3-1.2c0.4-0.4,0.8-0.8,1.2-1.3
								c5.2-5.7,8.4-13.2,8.4-21.5C369.8,93.2,369.7,92.7,369.7,92.3L369.7,92.3z M243.4,107.5c-0.3-0.5-0.6-1-0.9-1.5
								c-2.3-3.9-4-8.2-5-12.7c-1.1-0.2-2.2-0.3-3.3-0.3c-0.1,0-0.2,0-0.4,0c-0.6,0-1.1,0.1-1.7,0.1c-0.6,0.1-1.1,0.2-1.7,0.3
								c-4.8,1.1-8.8,4.3-10.9,8.6c-0.3,0.5-0.5,1-0.7,1.6c-0.2,0.5-0.4,1.1-0.5,1.6c-0.3,1.3-0.5,2.6-0.5,3.9c0,3.1,0.9,6,2.4,8.5
								c0.3,0.5,0.6,0.9,1,1.4c0.3,0.4,0.7,0.9,1.1,1.3c3,3.1,7.1,5,11.8,5c6.9,0,12.8-4.3,15.2-10.3c-1.8-1.8-3.5-3.8-4.9-5.9
								C244,108.5,243.7,108,243.4,107.5L243.4,107.5z M322.9,86.8c0.1-0.7,0.1-1.4,0.1-2.1c0-0.4,0-0.7,0-1.1
								c0-5.9-1.3-11.5-3.6-16.6c-0.2-0.5-0.5-1-0.7-1.5s-0.5-1-0.8-1.5c-3.7-6.7-9.2-12.3-15.8-16.1c-0.5-0.3-1-0.6-1.5-0.8
								c-0.5-0.3-1-0.5-1.5-0.8c-5.1-2.4-10.8-3.8-16.8-3.9c-0.3,0-0.6,0-1,0s-0.8,0-1.2,0c-0.7,0-1.4,0.1-2.1,0.1
								c-6.6,0.5-12.7,2.5-18.1,5.7c-0.5,0.3-1,0.6-1.5,0.9c-0.5,0.3-1,0.7-1.4,1c-2.8,2-5.3,4.3-7.5,6.9c-0.4,0.4-0.7,0.9-1.1,1.3
								c-0.3,0.4-0.7,0.9-1,1.3c-4.9,6.7-7.7,15-7.7,23.9c0,2.4,0.2,4.7,0.6,6.9c0.1,0.6,0.2,1.3,0.4,1.9c0.2,0.7,0.3,1.4,0.5,2.1
								c1,3.8,2.6,7.3,4.6,10.6c0.3,0.5,0.6,1,0.9,1.5c0.3,0.5,0.7,1,1,1.4c0.8,1.1,1.6,2.1,2.5,3c0.5,0.5,1,1.1,1.5,1.6
								s0.9,0.9,1.4,1.4c7.4,6.8,17.4,11,28.2,11c10.5,0,20.1-3.9,27.4-10.2c0.4-0.4,0.8-0.7,1.2-1.1c0.4-0.4,0.8-0.8,1.2-1.2
								c6.1-6.2,10.2-14.3,11.4-23.4C322.8,88.3,322.9,87.6,322.9,86.8L322.9,86.8z"/>
						</g>
					</g>
				</g>
			</g>
		</g>
	</g>
</g>
</svg>
