<?xml version="1.0" encoding="utf-8"?>
<!-- Generator: Adobe Illustrator 21.1.0, SVG Export Plug-In . SVG Version: 6.00 Build 0)  -->
<svg version="1.1" id="Ebene_1" xmlns="http://www.w3.org/2000/svg" xmlns:xlink="http://www.w3.org/1999/xlink" x="0px" y="0px"
	 viewBox="0 0 470 190" style="enable-background:new 0 0 470 190;" xml:space="preserve">
<style type="text/css">
	.st0{fill:#FFFFFF;}
</style>
<g id="Ebene_2">
</g>
<g id="Ebene_1_1_">
	<title>Group</title>
	<desc>Created with Sketch.</desc>
	<g id="Page-1_1_">
		<g id="Version-B-plain-Copy-2" transform="translate(-476.000000, -421.000000)">
			<g id="Group_1_" transform="translate(476.000000, 421.000000)">
				<g id="Group-2">
					<g id="Logo">
						<g>
							<g id="Group" transform="translate(0.000000, 97.835436)">
								<g id="Shape" transform="translate(0.000000, 31.775612)">
									<path class="st0" d="M22.9,3.8c-11.8,0-21.3,9.5-21.3,21.1S11.1,46,22.9,46s21.3-9.5,21.3-21.1S34.6,3.8,22.9,3.8L22.9,3.8
										z M22.9,40.6c-8.7,0-15.8-7-15.8-15.7s7-15.7,15.8-15.7s15.8,7,15.8,15.7S31.6,40.6,22.9,40.6L22.9,40.6z"/>
									<path class="st0" d="M100.9,5.3h-1.1v1v25.1c0,5-4.1,9.1-9.2,9.1s-9.2-4.1-9.2-9.1V6.3v-1h-1.1h-3.4H76v1v25.1
										c0,5-4.1,9.1-9.2,9.1s-9.2-4.1-9.2-9.1V6.3v-1h-1.1h-3.4H52v1v25.1c0,8,6.6,14.5,14.7,14.5c4.9,0,9.3-2.4,11.9-6.1
										c2.7,3.7,7,6.1,11.9,6.1c8.1,0,14.7-6.5,14.7-14.5V6.3v-1h-1.1H100.9L100.9,5.3z"/>
									<path class="st0" d="M135.1,3.6c-11.8,0-21.3,9.5-21.3,21.1v18.6v1h1.1h3.4h1.1v-1V24.7c0-8.6,7.1-15.7,15.8-15.7
										S151,16,151,24.7v18.6v1h1.1h3.4h1.1v-1V24.7C156.4,13.1,146.9,3.6,135.1,3.6L135.1,3.6z"/>
								</g>
								<g id="Shape_1_" transform="translate(162.055046, -0.000000)">
									<path class="st0" d="M86.6,35.5c-11.8,0-21.3,9.5-21.3,21.1s9.6,21.1,21.3,21.1s21.3-9.5,21.3-21.1S98.4,35.5,86.6,35.5
										L86.6,35.5z M86.6,72.3c-8.7,0-15.8-7-15.8-15.7S77.9,41,86.6,41s15.8,7,15.8,15.7S95.3,72.3,86.6,72.3L86.6,72.3z"/>
									<path class="st0" d="M152.9,37h-1.1v1v18.6c0,8.6-7.1,15.7-15.8,15.7s-15.8-7-15.8-15.7V38.1v-1h-1.1h-3.4h-1.1v1v18.6
										c0,11.6,9.6,21.1,21.3,21.1c11.8,0,21.3-9.5,21.3-21.1V38.1v-1h-1.1L152.9,37L152.9,37z"/>
									<path class="st0" d="M207.3,38.3L207.3,38.3V4.6v-1h-1.1h-3.4h-1.1v1v30.9h-16c-11.8,0-21.3,9.5-21.3,21.1
										s9.6,21.1,21.3,21.1h6.6c6.6,0,14.7-6.5,14.9-14.5C207.4,57.5,207.3,41.5,207.3,38.3L207.3,38.3z M201.8,63.2
										c-0.1,4.7-5.4,9.1-9.4,9.1h-6.6c-8.7,0-15.8-7-15.8-15.7c0-8.6,7.1-15.7,15.8-15.7h16C201.9,46,201.9,58.3,201.8,63.2
										L201.8,63.2z"/>
									<path class="st0" d="M51.2,63.2V21.6c-1.9-1-3.7-2-5.5-3.2v44.8c0,8,6.6,14.5,14.7,14.5h1.1v-1v-3.3v-1h-1.1
										C55.3,72.3,51.2,68.3,51.2,63.2L51.2,63.2z"/>
									<path class="st0" d="M7.6,45.7c0-8.1,3.7-15.4,9.4-20.3c-1.8-0.7-3.5-1.6-5-2.8c-6.1,5.8-9.9,14-9.9,23.1
										c0,17.7,14.5,32.1,32.4,32.1h1.1v-1v-3.3v-1h-1.1C19.7,72.3,7.6,60.4,7.6,45.7L7.6,45.7z"/>
								</g>
							</g>
							<path id="Shape_2_" class="st0" d="M170.8,39.8c-1.3-2.2-2-4.8-2-7.6c0-8.5,6.9-15.3,15.5-15.3c3.2,0,6.1,0.9,8.5,2.6
								C191,23.6,190,28,190,32.8c0,0.9,0,1.7,0.1,2.6c-0.6,0-1.2,0-1.8,0C181.9,35.2,175.9,36.9,170.8,39.8L170.8,39.8z
								 M167.4,99.2c-9-6.4-14.8-16.9-14.8-28.6c0-3,0.4-5.9,1.1-8.7c-0.3,0-0.6,0-0.9,0C136.4,61.8,123,75,123,91.3
								c0,16.2,13.3,29.5,29.7,29.5c6.3,0,12.1-1.9,16.8-5.2c-2-3-3.1-6.7-3.1-10.5C166.5,103,166.8,101,167.4,99.2L167.4,99.2z
								 M168.7,96c2.7-5.1,7.5-8.8,13.3-10.1c0.5-0.1,1.1-0.2,1.7-0.3c0.6-0.1,1.1-0.1,1.7-0.1c0.3,0,0.5,0,0.8,0
								c0.9,0,1.8,0.1,2.7,0.2c-0.3-2-0.4-4-0.4-6.1c0-9.9,3.3-19.1,8.8-26.5c-1.3-1.5-2.4-3.2-3.3-5c-0.3-0.5-0.5-1-0.8-1.5
								c-0.2-0.5-0.5-1-0.7-1.5c-0.9-2.1-1.5-4.3-1.9-6.5c-0.8-0.1-1.5-0.1-2.3-0.1c-5.6,0-10.9,1.4-15.4,3.9
								c-0.5,0.3-1,0.6-1.5,0.9c-0.5,0.3-1,0.6-1.4,0.9c-5.2,3.6-9.3,8.7-11.7,14.7c-0.2,0.5-0.4,1.1-0.6,1.6
								c-0.2,0.5-0.3,1.1-0.5,1.6c-0.7,2.7-1.1,5.5-1.1,8.4C155.9,80.9,161,90.2,168.7,96L168.7,96z M272.9,58.3
								c4.3-2.2,9.1-3.6,14.2-4c-1.3-15-14.1-26.9-29.6-26.9c-0.6,0-1.2,0-1.8,0.1c0.3,1.7,0.4,3.4,0.4,5.2c0,2.7-0.3,5.4-1,7.9
								C262.7,44.7,268.8,50.9,272.9,58.3L272.9,58.3z M193.7,37.3c0.1,0.6,0.2,1.2,0.3,1.8c0.3,1.3,0.7,2.6,1.2,3.9
								c0.2,0.6,0.4,1.1,0.7,1.7c0.2,0.5,0.5,1.1,0.8,1.6c0.8,1.5,1.7,2.9,2.7,4.3c2.1-2.4,4.4-4.5,6.9-6.4c0.5-0.4,1-0.7,1.5-1
								s1-0.7,1.5-1c6.8-4.3,14.9-6.9,23.6-7c0.2,0,0.4,0,0.6,0c0.6,0,1.1,0,1.7,0c0.8,0,1.5,0.1,2.3,0.1c5.2,0.5,10.1,1.8,14.7,3.8
								c0.5-2.1,0.7-4.2,0.7-6.4c0-1.6-0.1-3.2-0.4-4.8c-0.1-0.6-0.2-1.1-0.3-1.6s-0.3-1.1-0.4-1.6c-3.6-12.3-15-21.4-28.6-21.4
								c-11.2,0-21,6.2-26,15.3c-0.3,0.5-0.6,1-0.8,1.5c-0.3,0.5-0.5,1.1-0.7,1.7c-1.4,3.4-2.2,7.1-2.2,11c0,1,0.1,2,0.1,2.9
								C193.5,36.2,193.6,36.8,193.7,37.3L193.7,37.3z M327.7,87.2c-0.9,0-1.8,0.1-2.6,0.2c0,0.7,0.1,1.5,0.1,2.2
								c0,9.4-3.7,17.9-9.8,24.3c3,3.4,7.4,5.6,12.3,5.6c9,0,16.3-7.2,16.3-16.1C344,94.4,336.6,87.2,327.7,87.2L327.7,87.2z
								 M321.7,88.3c0-0.6-0.1-1.2-0.1-1.7c-0.1-0.6-0.1-1.1-0.2-1.7c-2.3-15-15.1-26.7-30.8-27.2c-0.4,0-0.8,0-1.2,0
								c-0.2,0-0.3,0-0.5,0c-0.6,0-1.1,0-1.7,0.1c-4.6,0.3-8.9,1.6-12.8,3.6c2.3,5.1,3.7,10.7,4,16.6c0,0.6,0,1.2,0,1.8
								c0,0.2,0,0.3,0,0.5c0,0.8,0,1.5-0.1,2.2c-0.7,11.1-5.5,21.1-12.9,28.6c5.9,6.5,14.5,10.6,24,10.6c8.2,0,15.7-3.1,21.4-8.1
								c0.4-0.4,0.9-0.8,1.3-1.2c0.4-0.4,0.8-0.8,1.2-1.3c5.2-5.7,8.4-13.2,8.4-21.5C321.8,89.2,321.7,88.7,321.7,88.3L321.7,88.3z
								 M195.4,103.5c-0.3-0.5-0.6-1-0.9-1.5c-2.3-3.9-4-8.2-5-12.7c-1.1-0.2-2.2-0.3-3.3-0.3c-0.1,0-0.2,0-0.4,0
								c-0.6,0-1.1,0.1-1.7,0.1c-0.6,0.1-1.1,0.2-1.7,0.3c-4.8,1.1-8.8,4.3-10.9,8.6c-0.3,0.5-0.5,1-0.7,1.6
								c-0.2,0.5-0.4,1.1-0.5,1.6c-0.3,1.3-0.5,2.6-0.5,3.9c0,3.1,0.9,6,2.4,8.5c0.3,0.5,0.6,0.9,1,1.4c0.3,0.4,0.7,0.9,1.1,1.3
								c3,3.1,7.1,5,11.8,5c6.9,0,12.8-4.3,15.2-10.3c-1.8-1.8-3.5-3.8-4.9-5.9C196,104.5,195.7,104,195.4,103.5L195.4,103.5z
								 M274.9,82.8c0.1-0.7,0.1-1.4,0.1-2.1c0-0.4,0-0.7,0-1.1c0-5.9-1.3-11.5-3.6-16.6c-0.2-0.5-0.5-1-0.7-1.5s-0.5-1-0.8-1.5
								c-3.7-6.7-9.2-12.3-15.8-16.1c-0.5-0.3-1-0.6-1.5-0.8c-0.5-0.3-1-0.5-1.5-0.8c-5.1-2.4-10.8-3.8-16.8-3.9c-0.3,0-0.6,0-1,0
								s-0.8,0-1.2,0c-0.7,0-1.4,0.1-2.1,0.1c-6.6,0.5-12.7,2.5-18.1,5.7c-0.5,0.3-1,0.6-1.5,0.9c-0.5,0.3-1,0.7-1.4,1
								c-2.8,2-5.3,4.3-7.5,6.9c-0.4,0.4-0.7,0.9-1.1,1.3c-0.3,0.4-0.7,0.9-1,1.3c-4.9,6.7-7.7,15-7.7,23.9c0,2.4,0.2,4.7,0.6,6.9
								c0.1,0.6,0.2,1.3,0.4,1.9c0.2,0.7,0.3,1.4,0.5,2.1c1,3.8,2.6,7.3,4.6,10.6c0.3,0.5,0.6,1,0.9,1.5c0.3,0.5,0.7,1,1,1.4
								c0.8,1.1,1.6,2.1,2.5,3c0.5,0.5,1,1.1,1.5,1.6s0.9,0.9,1.4,1.4c7.4,6.8,17.4,11,28.2,11c10.5,0,20.1-3.9,27.4-10.2
								c0.4-0.4,0.8-0.7,1.2-1.1c0.4-0.4,0.8-0.8,1.2-1.2c6.1-6.2,10.2-14.3,11.4-23.4C274.8,84.3,274.9,83.6,274.9,82.8L274.9,82.8
								z"/>
						</g>
					</g>
				</g>
				<g id="Page-1" transform="translate(397.000000, 88.000000)">
					<path id="Fill-1" class="st0" d="M68.5,92.4l-0.7-0.2c-0.1-0.2,0-0.2,0.4-0.2l0.1-0.3c-0.5-0.2-1.5-2-1.6-2.2
						c-0.1-0.1-0.2-0.2-0.5-0.3C66,89.1,66,89,66.3,88.9c-0.2-0.4-1.1-1.9-1.5-2.4s-0.5-0.9-0.3-1.3c-1.2-1-4.3-7.8-4.3-7.8l0.2-0.7
						L55.6,69c0,0-3.5-5.7-3.5-6c-0.1-0.3-0.5-1.1-1.2-2.4l-2.5-4.5l-1-1.2c-0.4-0.8-2.3-4.6-2.6-5.1c3.9-5.2,5.3-8.3,6.4-10.3
						L51,39.4c0.5-0.4,8.9-14.6,9.1-14.5c0-0.3,1.1-4.9,1.1-4.9c0.2,0,0.6-0.3,1-0.9c0.5-3.4,0.1-4.9,2.1-9.3
						c-0.3,0.5-0.7,0.6-1,0.4c2.2-3.5,2.1-5.3,1.3-7.2c-1.3,0.7-2.1,1.3-4,3.2s-3,3.1-3.5,3.4l0.1,0.7c-0.1,0.1-0.2,0-0.4-0.3
						l-0.4,0.1c0,0.5-3.3,4.5-3.6,4.3c-0.2,0.3-7.7,9.8-8.4,10.8l-0.3,0.4l-0.3,0.2l-0.3,0.1l-5.1,7.6l-1.9,2.6
						c-0.1,0.1-0.2,0-0.4-0.3l-0.4,0.1c0.2,0.1,0.1,0.5-0.4,1.3c-0.7-1.2-1.2-2.1-1.7-2.7l0.5-0.2l-4.5-6.4c-0.6-1.1-3.8-6-4-6.1
						c0,0-5-6.5-6.5-8c-2.1,1.5-6.1,6-6.5,6.7c-0.9,1.1-1.7,2.7-2.6,4.7c-0.9,2,0.1,3.1,0.1,3.1c0.9,1.6,5.1,6.3,6.9,8.6
						c1.9,2.2,3.4,3.9,4.3,5.3c1,1.3,1.9,2.7,2.8,4.1c0.9,1.4,1.4,2.3,1.7,2.7c0.2,0.4,0.5,0.7,0.8,0.7c-0.5,0.9-2.7,3.7-3.5,5.1
						c-0.2,0-11.2,15.8-11,16.5c0,0-7.4,11.2-8.5,13.1c0,0-1.7,3.6-2.2,4.5C4,90,6.6,90,9.4,90.1c0,0,3.2,0,5.6-0.3s3-0.1,4.1-0.1
						l0.8-1c1.1-1.5,4.6-7.1,5.9-9.7c1.2-2.6,9-16.3,9.8-17.6c1.9,3.2,6.8,12.3,7.9,13.6c1.1,1.3,5.1,8.6,5.1,9.3l1.1,1.2
						c0,0,5.3,4.1,5.8,4.3c-0.3,0.5,5.7,5.7,7.5,6.7s5.6,2,7.8,2.3c-0.1-1.4-0.6-1.8-1.6-4.3C68.2,92.2,68.5,92.9,68.5,92.4z
						 M32.4,34.8c-0.6-0.1-0.8-0.4-0.6-1.1c0.3-0.1,0.5,0,0.5,0.3C32.3,34.4,32.3,34.6,32.4,34.8L32.4,34.8z M34.4,37.5
						c-0.9-0.5-1.1-0.8-0.6-1.1L34.4,37.5z M41.7,31.3l-1,1.3c-0.2,0.3-0.8,1.4-1.1,1.7l-0.1-0.1l0.2-0.3c0-0.5,0.2-1.1,0.7-1.8
						C40.9,31.6,41.3,31.3,41.7,31.3L41.7,31.3z M42.3,30.5c0.1-0.4,0.3-0.9,0.8-1.5C43.6,29.3,43.3,29.8,42.3,30.5L42.3,30.5z
						 M54.4,68.4c-0.6-0.3-1-0.5-1.2-0.5l-2.7-4.7H51C52,64.5,53.2,66.3,54.4,68.4L54.4,68.4z"/>
				</g>
			</g>
		</g>
	</g>
</g>
</svg>
