<svg id="Ebene_1" data-name="Ebene 1" xmlns="http://www.w3.org/2000/svg" viewBox="0 0 151.51 94.43"><defs><style>.cls-1{fill:#fff;}</style></defs><title>ownCloud-online-logo-white</title><g id="Shape"><path class="cls-1" d="M8.77,53.89a8.74,8.74,0,1,0,8.78,8.74A8.77,8.77,0,0,0,8.77,53.89Zm0,15.23a6.49,6.49,0,1,1,6.52-6.49A6.51,6.51,0,0,1,8.77,69.12ZM40.93,54.51h-.43V65.35a3.78,3.78,0,0,1-7.56,0V54.51H30.67V65.35a3.78,3.78,0,0,1-7.56,0V54.51H20.85V65.35a6,6,0,0,0,11,3.49,6,6,0,0,0,11-3.49V54.51H40.93ZM55,53.82a8.77,8.77,0,0,0-8.78,8.74v8.12h2.26V62.56a6.52,6.52,0,0,1,13,0v8.12h2.26V62.56A8.77,8.77,0,0,0,55,53.82Z" transform="translate(0 -0.02)"/></g><path class="cls-1" d="M101.77,53.89a8.74,8.74,0,1,0,8.78,8.74A8.77,8.77,0,0,0,101.77,53.89Zm0,15.23a6.49,6.49,0,1,1,6.52-6.49A6.51,6.51,0,0,1,101.77,69.12Zm27.29-14.61h-.43v8.12a6.52,6.52,0,0,1-13,0V54.51h-2.26v8.12a8.78,8.78,0,0,0,17.56,0V54.51h-1.83Zm22.43.53V40.66h-2.26V53.88h-6.59a8.74,8.74,0,1,0,0,17.48h2.73c2.72,0,6.06-2.67,6.12-6C151.53,63,151.49,56.35,151.49,55Zm-2.26,10.29a4.33,4.33,0,0,1-3.86,3.79h-2.73a6.49,6.49,0,1,1,0-13h6.6C149.24,58.22,149.26,63.32,149.23,65.33Zm-62.06,0V48.14a18.37,18.37,0,0,1-2.26-1.34V65.35a6,6,0,0,0,6,6h.43V69.12h-.43a3.78,3.78,0,0,1-3.78-3.76ZM69.23,58.07a11,11,0,0,1,3.89-8.39,8.11,8.11,0,0,1-2.07-1.16,13.27,13.27,0,0,0,9.27,22.85h.43V69.12h-.43a11.08,11.08,0,0,1-11.09-11Z" transform="translate(0 -0.02)"/><path class="cls-1" d="M69.7,15.13A6.28,6.28,0,0,1,68.86,12a6.37,6.37,0,0,1,9.89-5.29,13.45,13.45,0,0,0-1.17,5.49c0,.36,0,.71,0,1.07l-.75,0a14.65,14.65,0,0,0-7.18,1.87Zm-1.4,24.61a14.58,14.58,0,0,1-5.65-15.47h-.37a12.2,12.2,0,1,0,6.94,22.24,8,8,0,0,1-.92-6.76Zm.55-1.31a8.12,8.12,0,0,1,5.48-4.16c.22,0,.45-.09.69-.11s.46,0,.69-.06H76a8.21,8.21,0,0,1,1.11.08A18.28,18.28,0,0,1,80.58,20.7a13.6,13.6,0,0,1-1.37-2.05L78.9,18l-.28-.64a13.37,13.37,0,0,1-.8-2.7c-.31,0-.62,0-.93,0a13.27,13.27,0,0,0-6.36,1.61l-.62.36-.59.38a13.32,13.32,0,0,0-4.82,6.06l-.24.66-.2.67a13.18,13.18,0,0,0,4.79,14Zm42.92-15.62a14.61,14.61,0,0,1,5.86-1.64A12.25,12.25,0,0,0,105.42,10l-.73,0a13.51,13.51,0,0,1-.23,5.44,18.62,18.62,0,0,1,7.31,7.31ZM79.13,14.13l.14.73a12.21,12.21,0,0,0,.48,1.62l.28.68.32.65a12.16,12.16,0,0,0,1.13,1.77,18.7,18.7,0,0,1,2.85-2.67l.6-.43.61-.41a18.47,18.47,0,0,1,9.71-2.89h.24l.69,0,.95.06a18.45,18.45,0,0,1,6,1.59,12,12,0,0,0,.13-4.64l-.13-.68L103,8.88A12.26,12.26,0,0,0,80.49,6.33L80.16,7l-.3.69A12.09,12.09,0,0,0,79,12.21c0,.41,0,.81.06,1.21l.09.71Zm55.18,20.63a6.86,6.86,0,0,0-1.08.09c0,.3,0,.61,0,.91a14.54,14.54,0,0,1-4,10,6.69,6.69,0,1,0,5.07-11Zm-2.45.47,0-.72-.09-.71a13.3,13.3,0,0,0-12.67-11.26h-.69l-.7,0a13.26,13.26,0,0,0-5.28,1.49A18.25,18.25,0,0,1,114,30.92l0,.73v.21c0,.31,0,.62,0,.93a18.36,18.36,0,0,1-5.31,11.82,13.31,13.31,0,0,0,18.72,1l.52-.49.5-.52a13.16,13.16,0,0,0,3.45-8.88v-.54Zm-52,6.28-.38-.63a18.28,18.28,0,0,1-2.06-5.27A6.76,6.76,0,0,0,76,35.47h-.15c-.23,0-.46,0-.69.05a6.79,6.79,0,0,0-.69.12A6.72,6.72,0,0,0,70,39.22a6.61,6.61,0,0,0-.48,1.32,6.54,6.54,0,0,0,.8,5.11,6.72,6.72,0,0,0,.85,1.1,6.71,6.71,0,0,0,11.1-2.18,18.63,18.63,0,0,1-2-2.45l-.41-.62ZM112.59,33c0-.29,0-.59,0-.88v-.44a16.91,16.91,0,0,0-1.46-6.89l-.3-.64-.32-.61A17.23,17.23,0,0,0,104,16.86l-.62-.34-.63-.31a17.11,17.11,0,0,0-6.91-1.62H95l-.88,0A17.07,17.07,0,0,0,86.68,17l-.61.38-.59.41a17.33,17.33,0,0,0-3.09,2.85l-.44.55-.42.56A16.91,16.91,0,0,0,78.59,34.5l.15.8q.09.43.21.85a17,17,0,0,0,1.9,4.37l.39.6.42.59q.48.65,1,1.26c.2.22.4.43.6.64l.58.56a17.16,17.16,0,0,0,22.92.3l.51-.47.51-.5a17,17,0,0,0,4.7-9.68q.06-.43.09-.87Z" transform="translate(0 -0.02)"/><path class="cls-1" d="M36.35,89.45a5.26,5.26,0,0,1-1.19,3.7,4.43,4.43,0,0,1-3.42,1.29,4.43,4.43,0,0,1-3.42-1.29,5.28,5.28,0,0,1-1.19-3.72,5.21,5.21,0,0,1,1.2-3.7,4.48,4.48,0,0,1,3.43-1.28,4.42,4.42,0,0,1,3.42,1.29A5.28,5.28,0,0,1,36.35,89.45Zm-7.08,0a4,4,0,0,0,.62,2.45,2.16,2.16,0,0,0,1.84.82q2.46,0,2.46-3.27t-2.45-3.28a2.17,2.17,0,0,0-1.85.83A4,4,0,0,0,29.27,89.45Z" transform="translate(0 -0.02)"/><path class="cls-1" d="M56.34,94.32H53.72L49.5,87h-.06q.13,1.94.13,2.77v4.56H47.73v-9.7h2.59l4.21,7.26h0q-.1-1.89-.1-2.67V84.62h1.85Z" transform="translate(0 -0.02)"/><path class="cls-1" d="M68.16,94.32v-9.7h2.06v8h3.93v1.7Z" transform="translate(0 -0.02)"/><path class="cls-1" d="M85.21,94.32v-9.7h2.06v9.7Z" transform="translate(0 -0.02)"/><path class="cls-1" d="M107.69,94.32h-2.61L100.85,87h-.06q.13,1.94.13,2.77v4.56H99.08v-9.7h2.59l4.21,7.26h0q-.1-1.89-.1-2.67V84.62h1.85Z" transform="translate(0 -0.02)"/><path class="cls-1" d="M125.09,94.32H119.5v-9.7h5.59V86.3h-3.53v2.13h3.28v1.69h-3.28v2.5h3.53Z" transform="translate(0 -0.02)"/></svg>