<?xml version="1.0" encoding="utf-8"?>
<svg version="1.1" id="Ebene_1" xmlns="http://www.w3.org/2000/svg" xmlns:xlink="http://www.w3.org/1999/xlink" x="0px" y="0px"
	 viewBox="0 0 1792 1792" style="enable-background:new 0 0 1792 1792;" xml:space="preserve">
<path d="M405,1792H213c-8.7,0-16.2-1.9-22.5-5.6s-9.5-8.2-9.5-13.4v-722c0-5.1,3.2-9.6,9.5-13.4s13.8-5.6,22.5-5.6h192
	c9.3,0,17,1.8,23,5.3s9,8.1,9,13.7v722c0,5.1-3.2,9.6-9.5,13.4S413.7,1792,405,1792z"/>
<path d="M989,1792H797c-8.7,0-16.2-1.9-22.5-5.6s-9.5-8.2-9.5-13.4v-722c0-5.1,3.2-9.6,9.5-13.4s13.8-5.6,22.5-5.6h192
	c9.3,0,17,1.8,23,5.3s9,8.1,9,13.7v722c0,5.1-3.2,9.6-9.5,13.4S997.7,1792,989,1792z"/>
<path d="M1573,1792h-192c-8.7,0-16.2-1.9-22.5-5.6s-9.5-8.2-9.5-13.4v-722c0-5.1,3.2-9.6,9.5-13.4s13.8-5.6,22.5-5.6h192
	c9.3,0,17,1.8,23,5.3s9,8.1,9,13.7v722c0,5.1-3.2,9.6-9.5,13.4S1581.7,1792,1573,1792z"/>
<path d="M484,692.5v99H149v-99h107c0-27.3,0.2-67.8,0.5-121.5c0.3-53.7,0.5-94.2,0.5-121.5v-12h-2c-5.3,11.3-22,29.3-50,54l-71-76
	l136-127h106v404H484z"/>
<path d="M1077,637v159H715c-4-24-6-42-6-54c0-34,7.8-65,23.5-93s34.5-50.7,56.5-68s44-33.2,66-47.5s40.8-28.8,56.5-43.5
	s23.5-29.7,23.5-45c0-16.7-4.8-29.5-14.5-38.5S897.7,393,881,393c-30.7,0-57.7,19.3-81,58l-85-59c16-34,39.8-60.5,71.5-79.5
	S853.3,284,892,284c48.7,0,89.7,13.8,123,41.5s50,65.2,50,112.5c0,33.3-11.3,63.8-34,91.5s-47.7,49.2-75,64.5
	c-27.3,15.3-52.5,32.2-75.5,50.5S845.7,680.3,845,697h127v-60H1077z"/>
<path d="M1658,624c0,53.3-18.2,95.3-54.5,126s-81.5,46-135.5,46c-70.7,0-128-22-172-66l57-88c32.7,30,68,45,106,45
	c19.3,0,36.2-4.8,50.5-14.5s21.5-23.8,21.5-42.5c0-42.7-35-61.3-105-56l-26-56c5.3-6.7,16.2-21.2,32.5-43.5s30.5-40.3,42.5-54
	s24.3-26.5,37-38.5v-1c-10.7,0-26.8,0.3-48.5,1s-37.8,1-48.5,1v53h-106V284h333v88l-95,115c34,8,61,24.3,81,49S1658,590,1658,624z"
	/>
</svg>
