<?xml version="1.0" encoding="utf-8"?>
<svg version="1.0" id="Ebene_1" xmlns="http://www.w3.org/2000/svg" xmlns:xlink="http://www.w3.org/1999/xlink" x="0px" y="0px"
	 width="150px" height="34px" viewBox="0 0 150 34" enable-background="new 0 0 150 34" xml:space="preserve">
<path fill="#FFFFFF" d="M119.902,20.115v12.57h1.298v-12.57H119.902z M146.813,20.115v3.603l0.033,0.623l0.057,0.638h-0.105
	c-0.619-0.873-1.509-1.31-2.673-1.31c-1.112,0-1.987,0.403-2.61,1.213c-0.625,0.808-0.94,1.94-0.94,3.399
	c0,1.46,0.312,2.585,0.934,3.379c0.624,0.79,1.497,1.188,2.618,1.188c1.189,0,2.089-0.449,2.689-1.349h0.072l0.172,1.188h1.053
	V20.115H146.813L146.813,20.115z M55.666,20.704c-1.09,0-2.041,0.249-2.854,0.743c-0.808,0.49-1.428,1.199-1.86,2.125
	c-0.433,0.922-0.649,1.996-0.649,3.224c0,1.949,0.441,3.445,1.321,4.492c0.881,1.038,2.153,1.56,3.815,1.56
	c1.158,0,2.205-0.203,3.144-0.607v-2.098c-1.142,0.414-2.114,0.621-2.917,0.621c-1.913,0-2.87-1.314-2.87-3.951
	c0-1.265,0.25-2.25,0.75-2.955c0.5-0.711,1.207-1.066,2.119-1.066c0.417,0,0.842,0.078,1.274,0.232
	c0.433,0.156,0.863,0.34,1.291,0.549l0.782-2.034C57.892,20.98,56.776,20.704,55.666,20.704z M115.709,20.704
	c-1.129,0-2.105,0.249-2.941,0.743c-0.83,0.496-1.468,1.201-1.906,2.117c-0.439,0.914-0.654,1.982-0.654,3.199
	c0,1.942,0.453,3.443,1.366,4.5c0.917,1.053,2.22,1.584,3.899,1.584c1.16,0,2.143-0.154,2.937-0.464V31.18
	c-1.024,0.299-1.935,0.447-2.731,0.447c-1.295,0-2.297-0.423-3.002-1.262c-0.701-0.844-1.05-2.039-1.05-3.586
	c0-1.504,0.365-2.687,1.089-3.547c0.729-0.867,1.723-1.301,2.979-1.301c0.865,0,1.729,0.209,2.595,0.631l0.565-1.181
	C117.954,20.932,116.904,20.704,115.709,20.704z M78.05,21.73l-0.687,1.906l-1.314,0.824v1.041h1.141v4.354
	c0,0.998,0.218,1.746,0.648,2.246c0.438,0.496,1.135,0.744,2.089,0.744c0.866,0,1.595-0.136,2.189-0.412v-1.832
	c-0.585,0.186-1.084,0.28-1.501,0.28c-0.314,0-0.567-0.083-0.76-0.249c-0.188-0.169-0.282-0.427-0.282-0.777v-4.354h2.448v-1.85
	h-2.448V21.73H78.05z M72.689,23.482c-1.104,0-1.959,0.222-2.564,0.664c-0.599,0.437-0.899,1.055-0.899,1.857
	c0,0.469,0.071,0.864,0.211,1.188c0.146,0.315,0.375,0.601,0.688,0.851c0.317,0.248,0.813,0.517,1.485,0.806
	c0.47,0.207,0.844,0.385,1.126,0.543c0.281,0.147,0.479,0.289,0.595,0.414c0.114,0.114,0.171,0.271,0.171,0.467
	c0,0.518-0.433,0.772-1.298,0.772c-0.422,0-0.912-0.069-1.47-0.215c-0.553-0.147-1.05-0.326-1.494-0.543v2.036
	c0.391,0.175,0.811,0.302,1.259,0.39c0.448,0.091,0.991,0.136,1.627,0.136c1.24,0,2.171-0.244,2.791-0.728
	c0.625-0.483,0.938-1.19,0.938-2.119c0-0.446-0.076-0.83-0.228-1.153c-0.151-0.322-0.385-0.607-0.704-0.855
	c-0.318-0.248-0.818-0.514-1.501-0.801c-0.766-0.316-1.264-0.558-1.493-0.717c-0.224-0.162-0.336-0.354-0.336-0.574
	c0-0.394,0.352-0.59,1.056-0.59c0.396,0,0.785,0.063,1.165,0.186c0.38,0.125,0.79,0.283,1.228,0.477l0.719-1.777
	C74.767,23.723,73.743,23.482,72.689,23.482z M86.805,23.482c-1.351,0-2.396,0.41-3.145,1.229c-0.745,0.817-1.119,1.966-1.119,3.44
	c0,0.947,0.174,1.779,0.518,2.49c0.346,0.707,0.836,1.258,1.479,1.637c0.642,0.377,1.38,0.568,2.22,0.568
	c1.338,0,2.385-0.414,3.137-1.246c0.748-0.826,1.125-1.977,1.125-3.449c0-0.946-0.174-1.773-0.518-2.479
	c-0.344-0.705-0.837-1.245-1.479-1.623C88.384,23.673,87.643,23.482,86.805,23.482z M97.002,23.482
	c-0.572,0-1.081,0.119-1.521,0.355c-0.443,0.232-0.785,0.555-1.016,0.971h-0.138l-0.319-1.156h-1.822v9.033h2.389v-4.252
	c0-1.059,0.14-1.822,0.416-2.285c0.275-0.463,0.716-0.693,1.328-0.693c0.451,0,0.785,0.165,0.992,0.492
	c0.211,0.322,0.319,0.812,0.319,1.462v5.276h2.384v-4.533c0-0.938,0.145-1.621,0.432-2.051c0.293-0.432,0.728-0.646,1.313-0.646
	c0.452,0,0.784,0.165,0.992,0.492c0.212,0.322,0.32,0.812,0.32,1.462v5.276h2.395v-5.891c0-1.156-0.255-1.998-0.77-2.521
	c-0.506-0.526-1.254-0.791-2.241-0.791c-0.571,0-1.089,0.115-1.55,0.348c-0.452,0.232-0.797,0.557-1.031,0.979h-0.21
	C99.2,23.925,98.313,23.482,97.002,23.482z M59.972,23.652v5.89c0,1.067,0.26,1.888,0.782,2.457
	c0.521,0.563,1.295,0.849,2.322,0.849c0.599,0,1.134-0.115,1.603-0.339c0.469-0.231,0.832-0.559,1.087-0.979h0.125l0.32,1.158h1.83
	v-9.033h-2.385v4.252c0,1.063-0.149,1.828-0.446,2.291c-0.297,0.459-0.779,0.688-1.446,0.688c-0.49,0-0.847-0.162-1.071-0.484
	c-0.224-0.326-0.335-0.819-0.335-1.469v-5.277h-2.386V23.652z M126.646,23.669c-1.239,0-2.213,0.403-2.908,1.213
	c-0.701,0.804-1.049,1.925-1.049,3.366c0,0.936,0.164,1.745,0.483,2.439c0.324,0.694,0.784,1.229,1.376,1.603
	c0.598,0.371,1.273,0.558,2.041,0.558c1.242,0,2.217-0.404,2.915-1.211c0.705-0.814,1.058-1.945,1.058-3.389
	c0-1.402-0.355-2.52-1.064-3.344C128.797,24.081,127.846,23.669,126.646,23.669L126.646,23.669z M131.938,23.831v5.795
	c0,1.125,0.256,1.942,0.771,2.453c0.524,0.512,1.308,0.769,2.349,0.769c0.604,0,1.139-0.115,1.609-0.347
	c0.475-0.231,0.848-0.567,1.109-1.002h0.074l0.184,1.188h1.072v-8.855h-1.297v4.652c0,1.146-0.209,1.974-0.625,2.481
	c-0.412,0.505-1.067,0.757-1.966,0.757c-0.677,0-1.172-0.178-1.493-0.533c-0.315-0.353-0.477-0.894-0.477-1.612v-5.745
	L131.938,23.831L131.938,23.831z M144.27,24.792c0.891,0,1.531,0.271,1.935,0.81c0.403,0.532,0.608,1.426,0.608,2.681v0.284
	c0,1.109-0.201,1.916-0.602,2.416c-0.396,0.492-1.036,0.74-1.925,0.74c-0.776,0-1.364-0.285-1.767-0.863
	c-0.403-0.574-0.604-1.428-0.604-2.562c0-1.114,0.2-1.976,0.604-2.584C142.925,25.1,143.51,24.792,144.27,24.792z M126.607,24.809
	c0.859,0,1.509,0.295,1.944,0.881c0.444,0.582,0.666,1.436,0.666,2.56c0,1.138-0.222,2.002-0.666,2.594
	c-0.437,0.587-1.079,0.882-1.928,0.882c-0.853,0-1.493-0.295-1.937-0.887c-0.435-0.596-0.655-1.455-0.655-2.589
	c0-1.14,0.218-1.999,0.647-2.575C125.113,25.098,125.76,24.809,126.607,24.809L126.607,24.809z M86.771,25.473
	c0.641,0,1.103,0.223,1.383,0.67c0.281,0.446,0.423,1.116,0.423,2.012c0,0.9-0.142,1.58-0.423,2.035
	c-0.275,0.455-0.732,0.678-1.367,0.678c-0.643,0-1.104-0.229-1.393-0.686c-0.28-0.457-0.424-1.136-0.424-2.027
	c0-0.899,0.144-1.57,0.424-2.012C85.675,25.693,86.135,25.473,86.771,25.473z"/>
<path fill="#FFFFFF" d="M24.415,2.526C16.758,2.53,10.329,8.287,9.481,15.896c-0.034-0.002-0.067-0.005-0.102-0.007
	c-4.613,0-8.352,3.74-8.352,8.352s3.739,8.353,8.352,8.353l0,0h15.035h13.363c5.537,0.002,10.024-4.486,10.024-10.021l0,0
	c-0.004-5.221-4.015-9.564-9.219-9.983C36.473,6.568,30.793,2.535,24.415,2.526L24.415,2.526z M24.415,7.537
	c5.535,0,10.023,4.487,10.023,10.023c0,5.535-4.488,10.022-10.023,10.022c-5.536,0-10.023-4.487-10.023-10.022
	C14.392,12.024,18.879,7.537,24.415,7.537z"/>
</svg>
