<?xml version="1.0" encoding="utf-8"?>
<!-- Generator: Adobe Illustrator 16.0.3, SVG Export Plug-In . SVG Version: 6.00 Build 0)  -->
<!DOCTYPE svg PUBLIC "-//W3C//DTD SVG 1.1//EN" "http://www.w3.org/Graphics/SVG/1.1/DTD/svg11.dtd">
<svg version="1.1" id="Ebene_1" xmlns="http://www.w3.org/2000/svg" xmlns:xlink="http://www.w3.org/1999/xlink" x="0px" y="0px"
	 width="150px" height="34px" viewBox="0 0 150 34" enable-background="new 0 0 150 34" xml:space="preserve">
<path fill="#FFFFFF" d="M119.903,20.115v12.571h1.297V20.115H119.903z M146.813,20.115v3.603l0.032,0.623l0.057,0.638h-0.105
	c-0.62-0.873-1.509-1.31-2.673-1.31c-1.113,0-1.987,0.404-2.611,1.213c-0.625,0.808-0.94,1.941-0.94,3.399
	c0,1.46,0.312,2.585,0.934,3.379c0.624,0.79,1.497,1.188,2.618,1.188c1.19,0,2.089-0.45,2.689-1.349h0.072l0.172,1.188h1.053V20.115
	H146.813L146.813,20.115z M55.666,20.704c-1.09,0-2.041,0.249-2.854,0.744c-0.808,0.49-1.428,1.198-1.86,2.124
	c-0.433,0.922-0.649,1.996-0.649,3.224c0,1.949,0.441,3.445,1.321,4.492c0.881,1.038,2.153,1.56,3.815,1.56
	c1.158,0,2.205-0.203,3.144-0.608v-2.098c-1.142,0.414-2.114,0.621-2.917,0.621c-1.913,0-2.87-1.314-2.87-3.951
	c0-1.264,0.25-2.25,0.75-2.955c0.5-0.711,1.207-1.066,2.119-1.066c0.417,0,0.842,0.078,1.274,0.233
	c0.433,0.155,0.863,0.339,1.291,0.549l0.782-2.035C57.892,20.981,56.776,20.704,55.666,20.704z M115.709,20.704
	c-1.129,0-2.106,0.249-2.941,0.744c-0.83,0.496-1.468,1.201-1.906,2.117c-0.44,0.914-0.655,1.982-0.655,3.199
	c0,1.942,0.453,3.443,1.366,4.499c0.917,1.054,2.22,1.584,3.9,1.584c1.16,0,2.142-0.153,2.936-0.463v-1.204
	c-1.024,0.298-1.935,0.447-2.731,0.447c-1.295,0-2.297-0.423-3.002-1.262c-0.701-0.844-1.05-2.039-1.05-3.586
	c0-1.503,0.365-2.686,1.089-3.547c0.729-0.867,1.723-1.301,2.979-1.301c0.864,0,1.729,0.21,2.594,0.631l0.565-1.18
	C117.954,20.931,116.905,20.704,115.709,20.704z M78.05,21.73l-0.687,1.907l-1.314,0.824v1.041h1.141v4.354
	c0,0.997,0.217,1.745,0.648,2.246c0.438,0.496,1.134,0.744,2.089,0.744c0.866,0,1.594-0.136,2.189-0.413v-1.832
	c-0.585,0.186-1.084,0.281-1.501,0.281c-0.314,0-0.567-0.083-0.759-0.249c-0.188-0.169-0.283-0.427-0.283-0.777v-4.354h2.448v-1.85
	h-2.448V21.73H78.05z M72.689,23.483c-1.104,0-1.959,0.221-2.564,0.663c-0.599,0.437-0.899,1.055-0.899,1.858
	c0,0.469,0.071,0.864,0.211,1.187c0.146,0.316,0.375,0.601,0.688,0.851c0.317,0.248,0.813,0.516,1.485,0.806
	c0.47,0.207,0.844,0.385,1.126,0.542c0.281,0.148,0.479,0.289,0.595,0.414c0.114,0.115,0.171,0.272,0.171,0.467
	c0,0.518-0.433,0.773-1.298,0.773c-0.422,0-0.912-0.07-1.47-0.215c-0.553-0.148-1.05-0.326-1.494-0.543v2.036
	c0.391,0.175,0.811,0.302,1.259,0.39c0.448,0.09,0.991,0.136,1.627,0.136c1.24,0,2.171-0.244,2.791-0.728
	c0.625-0.484,0.938-1.191,0.938-2.119c0-0.446-0.076-0.83-0.227-1.153c-0.151-0.322-0.385-0.608-0.704-0.856
	c-0.318-0.248-0.818-0.513-1.501-0.8c-0.766-0.317-1.264-0.558-1.493-0.718c-0.224-0.162-0.336-0.354-0.336-0.574
	c0-0.393,0.352-0.59,1.056-0.59c0.396,0,0.785,0.063,1.165,0.186c0.38,0.125,0.79,0.283,1.228,0.477l0.719-1.777
	C74.767,23.722,73.743,23.483,72.689,23.483z M86.804,23.483c-1.35,0-2.396,0.41-3.144,1.229c-0.745,0.818-1.119,1.965-1.119,3.441
	c0,0.947,0.174,1.778,0.518,2.49c0.345,0.707,0.836,1.257,1.479,1.637c0.641,0.377,1.38,0.567,2.22,0.567
	c1.338,0,2.384-0.413,3.136-1.245c0.748-0.827,1.125-1.977,1.125-3.449c0-0.947-0.173-1.774-0.517-2.48
	c-0.344-0.705-0.837-1.246-1.479-1.623C88.384,23.673,87.643,23.483,86.804,23.483z M97.002,23.483
	c-0.573,0-1.081,0.119-1.521,0.355c-0.444,0.232-0.785,0.555-1.016,0.97h-0.138l-0.319-1.155h-1.822v9.033h2.388v-4.252
	c0-1.059,0.14-1.822,0.416-2.285c0.275-0.463,0.716-0.694,1.328-0.694c0.452,0,0.785,0.165,0.993,0.493
	c0.211,0.322,0.319,0.811,0.319,1.461v5.277h2.384v-4.533c0-0.938,0.144-1.621,0.431-2.052c0.293-0.431,0.728-0.646,1.313-0.646
	c0.452,0,0.784,0.165,0.992,0.493c0.212,0.322,0.321,0.811,0.321,1.461v5.277h2.394v-5.891c0-1.157-0.255-1.998-0.77-2.521
	c-0.505-0.527-1.253-0.792-2.241-0.792c-0.571,0-1.089,0.116-1.549,0.348c-0.453,0.232-0.798,0.557-1.032,0.978h-0.21
	C99.2,23.925,98.312,23.483,97.002,23.483z M59.972,23.653v5.889c0,1.068,0.26,1.887,0.782,2.457
	c0.521,0.563,1.295,0.849,2.322,0.849c0.599,0,1.134-0.116,1.603-0.339c0.469-0.232,0.832-0.559,1.087-0.98h0.125l0.32,1.158h1.83
	v-9.033h-2.385v4.252c0,1.063-0.149,1.828-0.446,2.291c-0.297,0.459-0.779,0.688-1.446,0.688c-0.49,0-0.847-0.163-1.071-0.484
	c-0.224-0.327-0.335-0.82-0.335-1.469v-5.277H59.972z M126.647,23.669c-1.24,0-2.213,0.404-2.909,1.213
	c-0.701,0.803-1.049,1.924-1.049,3.366c0,0.935,0.164,1.745,0.484,2.44c0.324,0.694,0.784,1.229,1.376,1.602
	c0.597,0.371,1.273,0.558,2.041,0.558c1.242,0,2.216-0.405,2.915-1.212c0.705-0.814,1.057-1.944,1.057-3.388
	c0-1.403-0.355-2.519-1.064-3.343C128.797,24.081,127.845,23.669,126.647,23.669L126.647,23.669z M131.937,23.831v5.795
	c0,1.125,0.256,1.943,0.771,2.453c0.525,0.512,1.307,0.769,2.348,0.769c0.604,0,1.14-0.116,1.61-0.347
	c0.475-0.232,0.848-0.568,1.11-1.002h0.073l0.184,1.188h1.073v-8.855h-1.298v4.652c0,1.146-0.208,1.974-0.624,2.482
	c-0.412,0.504-1.068,0.757-1.966,0.757c-0.677,0-1.172-0.178-1.494-0.534c-0.315-0.352-0.476-0.893-0.476-1.612v-5.745H131.937
	L131.937,23.831z M144.27,24.792c0.89,0,1.531,0.27,1.934,0.809c0.404,0.533,0.608,1.427,0.608,2.681v0.285
	c0,1.109-0.2,1.915-0.601,2.416c-0.396,0.491-1.036,0.74-1.925,0.74c-0.776,0-1.364-0.286-1.766-0.864
	c-0.404-0.574-0.604-1.428-0.604-2.561c0-1.114,0.2-1.975,0.604-2.584C142.925,25.1,143.51,24.792,144.27,24.792z M126.608,24.809
	c0.859,0,1.508,0.294,1.944,0.881c0.444,0.581,0.666,1.435,0.666,2.559c0,1.138-0.222,2.002-0.666,2.594
	c-0.437,0.587-1.079,0.881-1.928,0.881c-0.853,0-1.493-0.294-1.936-0.886c-0.435-0.596-0.656-1.455-0.656-2.589
	c0-1.14,0.218-1.999,0.648-2.575C125.114,25.097,125.76,24.809,126.608,24.809L126.608,24.809z M86.771,25.472
	c0.641,0,1.103,0.223,1.384,0.67s0.422,1.117,0.422,2.012c0,0.901-0.141,1.58-0.422,2.035c-0.276,0.455-0.733,0.678-1.368,0.678
	c-0.642,0-1.104-0.228-1.392-0.686c-0.281-0.457-0.424-1.135-0.424-2.027c0-0.899,0.143-1.57,0.424-2.012
	C85.675,25.694,86.135,25.472,86.771,25.472z"/>
<path fill="#FFFFFF" d="M24.415,2.526C16.758,2.53,10.329,8.287,9.481,15.896c-0.034-0.002-0.067-0.005-0.102-0.007
	c-4.613,0-8.352,3.74-8.352,8.352c0,4.613,3.739,8.352,8.352,8.352l0,0h15.035h13.363c5.537,0.002,10.024-4.486,10.024-10.021l0,0
	c-0.004-5.221-4.015-9.564-9.219-9.983C36.473,6.568,30.793,2.535,24.415,2.526L24.415,2.526z M24.415,7.537
	c5.535,0,10.023,4.487,10.023,10.023S29.95,27.583,24.415,27.583c-5.536,0-10.023-4.487-10.023-10.023S18.879,7.537,24.415,7.537z"
	/>
</svg>
