<?xml version="1.0" encoding="utf-8"?>
<!-- Generator: Adobe Illustrator 21.1.0, SVG Export Plug-In . SVG Version: 6.00 Build 0)  -->
<svg version="1.1" id="Ebene_2" xmlns="http://www.w3.org/2000/svg" xmlns:xlink="http://www.w3.org/1999/xlink" x="0px" y="0px"
	 viewBox="0 0 16 16" style="enable-background:new 0 0 16 16;" xml:space="preserve">
<style type="text/css">
	.st0{fill:#55739A;}
</style>
<path class="st0" d="M14.5,4H8L6,2H1.5l0,0C1.2,2,1,2.2,1,2.5v11.1C1,13.8,1.2,14,1.5,14h13.1c0.3,0,0.5-0.2,0.5-0.5V4.5
	C15,4.2,14.8,4,14.5,4z M8,12.8c-2,0-3.6-1.6-3.6-3.6c0-2,1.6-3.6,3.6-3.6s3.6,1.6,3.6,3.6C11.6,11.1,10,12.8,8,12.8z"/>
<path class="st0" d="M9.4,10.2l-1-1V6.8c0-0.1-0.1-0.2-0.2-0.2H7.7c-0.1,0-0.1,0.1-0.1,0.2v2.7c0,0.1,0,0.1,0.1,0.1l1.2,1.2
	c0.1,0.1,0.2,0.1,0.2,0l0.4-0.4C9.5,10.4,9.5,10.3,9.4,10.2z"/>
</svg>
