<?xml version="1.0" encoding="UTF-8" standalone="no"?>
<svg
   xmlns:dc="http://purl.org/dc/elements/1.1/"
   xmlns:cc="http://creativecommons.org/ns#"
   xmlns:rdf="http://www.w3.org/1999/02/22-rdf-syntax-ns#"
   xmlns:svg="http://www.w3.org/2000/svg"
   xmlns="http://www.w3.org/2000/svg"
   xmlns:sodipodi="http://sodipodi.sourceforge.net/DTD/sodipodi-0.dtd"
   xmlns:inkscape="http://www.inkscape.org/namespaces/inkscape"
   version="1.1"
   xml:space="preserve"
   height="16px"
   viewBox="-0.5 -0.5 16 16"
   width="16px"
   enable-background="new -0.5 -0.5 16 16"
   y="0px"
   x="0px"
   overflow="visible"
   id="svg2"
   inkscape:version="0.48.4 r9939"
   sodipodi:docname="checkmark-white.svg"><sodipodi:namedview
   pagecolor="#ffffff"
   bordercolor="#666666"
   borderopacity="1"
   objecttolerance="10"
   gridtolerance="10"
   guidetolerance="10"
   inkscape:pageopacity="0"
   inkscape:pageshadow="2"
   inkscape:window-width="708"
   inkscape:window-height="480"
   id="namedview10"
   showgrid="false"
   inkscape:zoom="14.75"
   inkscape:cx="8"
   inkscape:cy="8"
   inkscape:window-x="500"
   inkscape:window-y="214"
   inkscape:window-maximized="0"
   inkscape:current-layer="svg2" /><metadata
   id="metadata4"><rdf:RDF><cc:Work
       rdf:about=""><dc:format>image/svg+xml</dc:format><dc:type
         rdf:resource="http://purl.org/dc/dcmitype/StillImage" /><dc:title /></cc:Work></rdf:RDF></metadata><defs
   id="defs6">
</defs>
<path
   fill="#000"
   d="M12.438,3.6875c-0.363,0-0.726,0.1314-1,0.4063l-4.5005,4.5-1.9687-2c-0.5498-0.5484-1.4489-0.5498-2,0l-0.5,0.5c-0.5512,0.5496-0.5512,1.4502,0,2l2.9687,2.9682c0.0063,0.007-0.0065,0.025,0,0.032l0.5,0.5c0.5497,0.55,1.4503,0.55,2,0l0.5-0.5,0.1875-0.219,5.313-5.2812c0.549-0.5498,0.549-1.4503,0-2l-0.5-0.5c-0.275-0.2749-0.638-0.4063-1-0.4063z"
   transform="translate(-0.5,-0.5)"
   id="path8"
   style="fill:#dddddd;fill-opacity:1" />
</svg>