<?xml version="1.0" encoding="utf-8"?>
<!-- Generator: Adobe Illustrator 21.0.2, SVG Export Plug-In . SVG Version: 6.00 Build 0)  -->
<svg version="1.1" id="Ebene_1" focusable="false" xmlns="http://www.w3.org/2000/svg" xmlns:xlink="http://www.w3.org/1999/xlink"
	 x="0px" y="0px" viewBox="0 0 576 512" style="enable-background:new 0 0 576 512;" xml:space="preserve">
<style type="text/css">
	.st0{fill:#F0506E;}
</style>
<path class="st0" d="M569.5,440c18.5,32-4.7,72-41.6,72H48.1c-36.9,0-60-40.1-41.6-72L246.4,24c18.5-32,64.7-32,83.2,0L569.5,440
	L569.5,440z M288,354c-25.4,0-46,20.6-46,46s20.6,46,46,46s46-20.6,46-46S313.4,354,288,354z M244.3,188.7l7.4,136
	c0.3,6.4,5.6,11.3,12,11.3h48.5c6.4,0,11.6-5,12-11.3l7.4-136c0.4-6.9-5.1-12.7-12-12.7h-63.4C249.4,176,244,181.8,244.3,188.7
	L244.3,188.7z"/>
</svg>
