<?xml version="1.0" encoding="UTF-8" standalone="no"?>
<svg
   height="16"
   width="16"
   version="1.1"
   id="svg8"
   sodipodi:docname="public-create.svg"
   inkscape:version="1.1 (c4e8f9e, 2021-05-24)"
   xmlns:inkscape="http://www.inkscape.org/namespaces/inkscape"
   xmlns:sodipodi="http://sodipodi.sourceforge.net/DTD/sodipodi-0.dtd"
   xmlns="http://www.w3.org/2000/svg"
   xmlns:svg="http://www.w3.org/2000/svg">
  <defs
     id="defs12">
    <marker
       inkscape:stockid="DistanceStart"
       orient="auto"
       refY="0.0"
       refX="0.0"
       id="DistanceStart"
       style="overflow:visible"
       inkscape:isstock="true">
      <g
         id="g2300">
        <path
           id="path2306"
           d="M 0,0 L 2,0"
           style="fill:none;stroke:context-fill;stroke-width:1.15;stroke-linecap:square" />
        <path
           id="path2302"
           d="M 0,0 L 13,4 L 9,0 13,-4 L 0,0 z "
           style="fill:context-stroke;fill-rule:evenodd;stroke:none" />
        <path
           id="path2304"
           d="M 0,-4 L 0,40"
           style="fill:none;stroke:context-stroke;stroke-width:1;stroke-linecap:square" />
      </g>
    </marker>
  </defs>
  <sodipodi:namedview
     id="namedview10"
     pagecolor="#ffffff"
     bordercolor="#666666"
     borderopacity="1.0"
     inkscape:pageshadow="2"
     inkscape:pageopacity="0.0"
     inkscape:pagecheckerboard="0"
     showgrid="false"
     inkscape:zoom="4"
     inkscape:cx="9.375"
     inkscape:cy="8"
     inkscape:window-width="1406"
     inkscape:window-height="857"
     inkscape:window-x="331"
     inkscape:window-y="404"
     inkscape:window-maximized="0"
     inkscape:current-layer="svg8" />
  <g
     transform="matrix(0.61227989,-0.61227989,0.61227989,0.61227989,0.44658442,85.063594)"
     id="g6">
    <path
       d="m 69.5,-61.5 c -1.9217,0 -3.5,1.5783 -3.5,3.5 0,0.17425 0.0062,0.33232 0.03125,0.5 h 2.0625 c -0.053,-0.156 -0.094,-0.323 -0.094,-0.5 0,-0.8483 0.6517,-1.5 1.5,-1.5 h 5 c 0.8483,0 1.5,0.6517 1.5,1.5 0,0.8483 -0.6517,1.5 -1.5,1.5 h -1.6875 c -0.28733,0.79501 -0.78612,1.4793 -1.4375,2 h 3.125 c 1.9217,0 3.5,-1.5783 3.5,-3.5 0,-1.9217 -1.5783,-3.5 -3.5,-3.5 h -5 z"
       id="path2" />
    <path
       d="m 68.5,-54.5 c 1.9217,0 3.5,-1.5783 3.5,-3.5 0,-0.17425 -0.0062,-0.33232 -0.03125,-0.5 h -2.0625 c 0.053,0.156 0.094,0.323 0.094,0.5 0,0.8483 -0.6517,1.5 -1.5,1.5 h -5 c -0.8483,0 -1.5,-0.6517 -1.5,-1.5 0,-0.8483 0.6517,-1.5 1.5,-1.5 h 1.6875 c 0.28733,-0.79501 0.78612,-1.4793 1.4375,-2 h -3.125 c -1.9217,0 -3.5,1.5783 -3.5,3.5 0,1.9217 1.5783,3.5 3.5,3.5 h 5 z"
       id="path4" />
  </g>
  <g
     transform="matrix(-0.36907198,-0.37644722,0.36907198,-0.37644722,-371.47063,408.12785)"
     id="g4">
    <rect
       style="fill:#000000;stroke-width:1.79655"
       id="rect348"
       width="3.129065"
       height="13.256586"
       x="732.617"
       y="-751.17737"
       transform="rotate(135)" />
    <rect
       style="fill:#000000;stroke-width:1.81378;paint-order:stroke fill markers"
       id="rect348-6"
       width="3.1268868"
       height="13.521495"
       x="-746.12512"
       y="-740.87329"
       transform="rotate(-135)" />
  </g>
</svg>
