<svg xmlns="http://www.w3.org/2000/svg" width="64" height="64" viewBox="0 0 64 64">
	<rect x="2" y="2" width="17.14" height="17.14" rx="2.14" ry="2.14" style="fill: #fff"/>
	<path d="M25.57,6.29H59.86A2.14,2.14,0,0,1,62,8.43h0a2.14,2.14,0,0,1-2.14,2.14H25.57a2.14,2.14,0,0,1-2.14-2.14h0A2.14,2.14,0,0,1,25.57,6.29Z" style="fill: #fff"/>
	<rect x="2" y="23.43" width="17.14" height="17.14" rx="2.14" ry="2.14" style="fill: #fff"/>
	<path d="M25.57,27.71H59.86A2.14,2.14,0,0,1,62,29.86h0A2.14,2.14,0,0,1,59.86,32H25.57a2.14,2.14,0,0,1-2.14-2.14h0A2.14,2.14,0,0,1,25.57,27.71Z" style="fill: #fff"/>
	<rect x="2" y="44.86" width="17.14" height="17.14" rx="2.14" ry="2.14" style="fill: #fff"/>
	<path d="M25.57,49.14H59.86A2.14,2.14,0,0,1,62,51.29h0a2.14,2.14,0,0,1-2.14,2.14H25.57a2.14,2.14,0,0,1-2.14-2.14h0A2.14,2.14,0,0,1,25.57,49.14Z" style="fill: #fff"/>
</svg>
